<?xml version="1.0" encoding="UTF-8"?>
<svg width="281px" height="25px" viewBox="0 0 281 25" version="1.1" xmlns="http://www.w3.org/2000/svg" xmlns:xlink="http://www.w3.org/1999/xlink">
    <!-- Generator: Sketch 48.2 (47327) - http://www.bohemiancoding.com/sketch -->
    <title>Page 1</title>
    <desc>Created with Sketch.</desc>
    <defs>
        <path d="M17.9831195,0.544827586 L17.9831195,14.5853448 C17.9831195,17.2181034 17.2663658,19.2603448 15.8328586,20.712069 C14.3984708,22.162069 12.4084669,22.887931 9.85756365,22.887931 C7.28552761,22.887931 5.28143517,22.162069 3.84880846,20.712069 C2.41354015,19.2603448 1.70030866,17.2181034 1.70030866,14.5853448 L1.70030866,0.544827586 L0.277367803,0.544827586 L0.277367803,14.5853448 C0.277367803,17.6448276 1.11827654,20.0258621 2.79833294,21.7241379 C4.47926988,23.4232759 6.8329338,24.2715517 9.85756365,24.2715517 C12.881313,24.2715517 15.2261716,23.4232759 16.8983032,21.7241379 C18.5695542,20.0258621 19.4042993,17.6448276 19.4042993,14.5853448 L19.4042993,0.544827586 L17.9831195,0.544827586 Z" id="path-1"></path>
        <polygon id="path-3" points="0.528290659 0.564285714 0.528290659 24.9982143 15.9777613 24.9982143 15.9777613 23.5642857 1.92696183 23.5642857 1.92696183 13.21875 14.0464692 13.21875 14.0464692 11.7526786 1.92696183 11.7526786 1.92696183 1.99821429 15.5447361 1.99821429 15.5447361 0.564285714"></polygon>
        <path d="M10.6900248,0.352678571 L0.470485135,24.9991071 L5.82037072,24.9991071 L8.00001937,19.5107143 L18.0831095,19.5107143 L20.2636441,24.9991071 L25.7499793,24.9991071 L15.5286676,0.352678571 L10.6900248,0.352678571 Z M13.0415644,6.82142857 L16.2100293,14.7571429 L9.87309955,14.7571429 L13.0415644,6.82142857 Z" id="path-5"></path>
        <path d="M0.25325052,12.3232759 L0.25325052,12.3905172 C0.25325052,19.175 5.40851975,24.5422414 12.3488108,24.5422414 C16.8968046,24.5422414 19.5914252,22.9206897 22.0196507,20.3241379 L18.7160021,16.9818966 C16.8643815,18.6681034 15.2116809,19.7482759 12.516184,19.7482759 C8.47381497,19.7482759 5.67841996,16.3741379 5.67841996,12.3232759 L5.67841996,12.2543103 C5.67841996,8.20431034 8.54129002,4.89741379 12.516184,4.89741379 C14.8760582,4.89741379 16.7285551,5.9112069 18.5486289,7.5637931 L21.8505249,3.75 C19.6615291,1.58965517 16.9993316,0.105172414 12.5521123,0.105172414 C5.30774532,0.105172414 0.25325052,5.60775862 0.25325052,12.3232759 Z" id="path-7"></path>
        <polygon id="path-9" points="15.5069938 0.528571429 5.93692827 11.225 5.93692827 0.528571429 0.748359667 0.528571429 0.748359667 24.9991071 5.93692827 24.9991071 5.93692827 17.5178571 8.66572453 14.5821429 15.9784428 24.9991071 22.210684 24.9991071 12.170922 10.9116071 21.7725343 0.528571429"></polygon>
        <polygon id="path-11" points="0.831788932 0.528571429 0.831788932 24.9991071 18.3156306 24.9991071 18.3156306 20.1044643 6.18416988 20.1044643 6.18416988 0.528571429"></polygon>
        <polygon id="path-13" points="0.618786855 0.528571429 0.618786855 24.9991071 18.304699 24.9991071 18.304699 20.2098214 5.69508292 20.2098214 5.69508292 15.0714286 16.6459705 15.0714286 16.6459705 10.2821429 5.69508292 10.2821429 5.69508292 5.31875 18.1389988 5.31875 18.1389988 0.528571429"></polygon>
        <polygon id="path-15" points="15.9629265 0.528571429 15.9629265 15.5955357 5.1092382 0.528571429 0.410563784 0.528571429 0.410563784 24.9991071 5.43803351 24.9991071 5.43803351 9.44196429 15.8415649 23.8660714 20.9938391 11.8491071 20.9938391 0.528571429"></polygon>
    </defs>
    <g id="Desktop-HD" stroke="none" stroke-width="1" fill="none" fill-rule="evenodd" transform="translate(-579.000000, -4275.000000)">
        <g id="Group-2-Copy" transform="translate(544.000000, 4275.000000)">
            <g id="Page-1" transform="translate(35.000000, 0.000000)">
                <path d="M153.62092,1.25 L143.031532,25 L144.568757,25 L147.575427,18.2382149 L161.240136,18.2382149 L164.27809,25 L165.815315,25 L155.124256,1.25 L153.62092,1.25 Z M154.356077,2.88077837 L160.604912,16.8113923 L148.174155,16.8113923 L154.356077,2.88077837 Z" id="Fill-1" fill="#FEFEFE"></path>
                <path d="M153.62092,1.25 L143.031532,25 L144.568757,25 L147.575427,18.2382149 L161.240136,18.2382149 L164.27809,25 L165.815315,25 L155.125125,1.25 L153.62092,1.25 Z M154.356077,2.88077837 L160.604912,16.8113923 L148.174155,16.8113923 L154.356077,2.88077837 Z" id="Fill-2" fill="#FEFEFE"></path>
                <polygon id="Fill-3" fill="#FEFEFE" points="184.480915 1.25 175.306316 23.3006578 166.170285 1.25 164.54955 1.25 174.549315 25 176.066905 25 186.067568 1.25"></polygon>
                <polygon id="Fill-4" fill="#FEFEFE" points="184.481746 1.25 175.306765 23.3015257 166.170352 1.25 164.54955 1.25 174.548835 25 176.067385 25 186.067568 1.25"></polygon>
                <polygon id="Fill-5" fill="#FEFEFE" points="189.864865 1.25 189.864865 25 205.054054 25 205.054054 23.6070254 191.239895 23.6070254 191.239895 13.5507035 203.154554 13.5507035 203.154554 12.1238809 191.239895 12.1238809 191.239895 2.6438425 204.627497 2.6438425 204.627497 1.25"></polygon>
                <polygon id="Fill-6" fill="#FEFEFE" points="189.864865 1.25 189.864865 25 205.054054 25 205.054054 23.6070254 191.239895 23.6070254 191.239895 13.5507035 203.155405 13.5507035 203.155405 12.1247488 191.239895 12.1247488 191.239895 2.6438425 204.627497 2.6438425 204.627497 1.25"></polygon>
                <polygon id="Fill-7" fill="#FEFEFE" points="228.971205 1.25 228.971205 22.8927462 213.051459 1.25 211.382883 1.25 211.382883 25 212.814738 25 212.814738 3.39196967 228.69902 25 230.369369 25 230.369369 1.25"></polygon>
                <polygon id="Fill-8" fill="#FEFEFE" points="228.971205 1.25 228.971205 22.8936141 213.052346 1.25 211.382883 1.25 211.382883 25 212.814738 25 212.814738 3.39196967 228.69902 25 230.369369 25 230.369369 1.25"></polygon>
                <path d="M241.50918,21.4370254 C242.931288,22.8884478 244.921538,23.615022 247.473814,23.615022 C250.005987,23.615022 251.981379,22.8884478 253.405234,21.4370254 C254.828215,19.9838771 255.539706,17.9396323 255.539706,15.3051539 L255.539706,1.25 L256.95045,1.25 L256.95045,15.3051539 C256.95045,18.3667751 256.121835,20.7501453 254.462855,22.4509501 C252.803876,24.150892 250.475361,25 247.473814,25 C244.472268,25 242.135886,24.150892 240.467292,22.4509501 C238.797824,20.7501453 237.963964,18.3667751 237.963964,15.3051539 L237.963964,1.25 L239.376456,1.25 L239.376456,15.3051539 C239.376456,17.9396323 240.085325,19.9838771 241.50918,21.4370254" id="Fill-9" fill="#FEFEFE"></path>
                <g id="Group-13" transform="translate(237.963964, 0.000000)">
                    <mask id="mask-2" fill="white">
                        <use xlink:href="#path-1"></use>
                    </mask>
                    <g id="Clip-12"></g>
                    <polygon id="Fill-11" fill="#FEFEFE" mask="url(#mask-2)" points="-1.95214101 26.4534483 21.6329275 26.4534483 21.6329275 -1.63706897 -1.95214101 -1.63706897"></polygon>
                </g>
                <polygon id="Fill-14" fill="#FEFEFE" points="264.545045 1.25 279.308504 1.25 279.308504 2.6429746 265.920152 2.6429746 265.920152 12.1247488 277.835479 12.1247488 277.835479 13.5507035 265.920152 13.5507035 265.920152 23.6070254 279.734234 23.6070254 279.734234 25 264.545045 25"></polygon>
                <g id="Group-18" transform="translate(264.545045, 0.000000)">
                    <mask id="mask-4" fill="white">
                        <use xlink:href="#path-3"></use>
                    </mask>
                    <g id="Clip-17"></g>
                    <polygon id="Fill-16" fill="#FEFEFE" mask="url(#mask-4)" points="-1.66368255 27.2580357 18.1697345 27.2580357 18.1697345 -1.69464286 -1.66368255 -1.69464286"></polygon>
                </g>
                <path d="M15.7618472,15.1305517 L12.5888926,7.48261122 L9.41593797,15.1305517 L15.7618472,15.1305517 Z M10.2340208,1.25 L15.07952,1.25 L25.3153153,25 L19.821206,25 L17.6375815,19.7112284 L7.54109091,19.7112284 L5.35657911,25 L0,25 L10.2340208,1.25 Z" id="Fill-19" fill="#FEFEFE"></path>
                <g id="Group-23">
                    <mask id="mask-6" fill="white">
                        <use xlink:href="#path-5"></use>
                    </mask>
                    <g id="Clip-22"></g>
                    <polygon id="Fill-21" fill="#FEFEFE" mask="url(#mask-6)" points="-1.77207207 27.2580357 27.9925365 27.2580357 27.9925365 -1.90714286 -1.77207207 -1.90714286"></polygon>
                </g>
                <path d="M26.5810811,12.5687879 L26.5810811,12.5 C26.5810811,5.62914491 31.5772325,0 38.7400868,0 C43.1358684,0 45.7677928,1.51950755 47.9327629,3.72954 L44.6684142,7.63016791 C42.8690373,5.93957246 41.037606,4.90334415 38.7054334,4.90334415 C34.7748734,4.90334415 31.9436921,8.28629886 31.9436921,12.4294483 L31.9436921,12.5 C31.9436921,16.6431494 34.7081657,20.0948921 38.7054334,20.0948921 C41.3694122,20.0948921 43.0033192,18.9898758 44.8338841,17.2648864 L48.0990991,20.6839989 C45.6993523,23.3411528 43.0353735,25 38.5382308,25 C31.6777273,25 26.5810811,19.5084309 26.5810811,12.5687879" id="Fill-24" fill="#FEFEFE"></path>
                <g id="Group-28" transform="translate(26.581081, 0.000000)">
                    <mask id="mask-8" fill="white">
                        <use xlink:href="#path-7"></use>
                    </mask>
                    <g id="Clip-27"></g>
                    <polygon id="Fill-26" fill="#FEFEFE" mask="url(#mask-8)" points="-1.9646632 26.7241379 24.2366881 26.7241379 24.2366881 -2.07672414 -1.9646632 -2.07672414"></polygon>
                </g>
                <polygon id="Fill-29" fill="#FEFEFE" points="53.1621622 1.25 58.3633163 1.25 58.3633163 11.6323385 67.9582156 1.25 74.2408935 1.25 64.6143655 11.3273069 74.6801802 25 68.4308881 25 61.1000722 14.8897636 58.3633163 17.7390356 58.3633163 25 53.1621622 25"></polygon>
                <g id="Group-33" transform="translate(51.896396, 0.000000)">
                    <mask id="mask-10" fill="white">
                        <use xlink:href="#path-9"></use>
                    </mask>
                    <g id="Clip-32"></g>
                    <polygon id="Fill-31" fill="#FEFEFE" mask="url(#mask-10)" points="-1.46955405 27.2589286 24.4285977 27.2589286 24.4285977 -1.73214286 -1.46955405 -1.73214286"></polygon>
                </g>
                <polygon id="Fill-34" fill="#FEFEFE" points="77.2117117 1.25 82.2491165 1.25 82.2491165 20.2494801 93.6666667 20.2494801 93.6666667 25 77.2117117 25"></polygon>
                <g id="Group-38" transform="translate(75.945946, 0.000000)">
                    <mask id="mask-12" fill="white">
                        <use xlink:href="#path-11"></use>
                    </mask>
                    <g id="Clip-37"></g>
                    <polygon id="Fill-36" fill="#FEFEFE" mask="url(#mask-12)" points="-1.45743887 27.2589286 20.6039543 27.2589286 20.6039543 -1.73214286 -1.45743887 -1.73214286"></polygon>
                </g>
                <polygon id="Fill-39" fill="#FEFEFE" points="98.7297297 1.25 116.284424 1.25 116.284424 5.89913161 103.816017 5.89913161 103.816017 10.7172438 114.788457 10.7172438 114.788457 15.3646422 103.816017 15.3646422 103.816017 20.3526015 116.45045 20.3526015 116.45045 25 98.7297297 25"></polygon>
                <g id="Group-43" transform="translate(97.463964, 0.000000)">
                    <mask id="mask-14" fill="white">
                        <use xlink:href="#path-13"></use>
                    </mask>
                    <g id="Clip-42"></g>
                    <polygon id="Fill-41" fill="#FEFEFE" mask="url(#mask-14)" points="-1.56552211 27.2589286 20.489871 27.2589286 20.489871 -1.73214286 -1.56552211 -1.73214286"></polygon>
                </g>
                <polygon id="Fill-44" fill="#FEFEFE" points="120.247748 1.25 125.159596 1.25 136.506606 15.873317 136.506606 1.25 141.765766 1.25 141.765766 12.2380687 136.379738 23.9011931 125.504209 9.90180428 125.504209 25 120.247748 25"></polygon>
                <g id="Group-48" transform="translate(120.247748, 0.000000)">
                    <mask id="mask-16" fill="white">
                        <use xlink:href="#path-15"></use>
                    </mask>
                    <g id="Clip-47"></g>
                    <polygon id="Fill-46" fill="#FEFEFE" mask="url(#mask-16)" points="-1.76878108 27.2589286 23.173184 27.2589286 23.173184 -1.73214286 -1.76878108 -1.73214286"></polygon>
                </g>
            </g>
        </g>
    </g>
</svg>