<?xml version="1.0" encoding="UTF-8"?>
<svg width="66px" height="69px" viewBox="0 0 66 69" version="1.1" xmlns="http://www.w3.org/2000/svg" xmlns:xlink="http://www.w3.org/1999/xlink">
    <!-- Generator: Sketch 48.2 (47327) - http://www.bohemiancoding.com/sketch -->
    <title>Page 1 Copy 16</title>
    <desc>Created with Sketch.</desc>
    <defs>
        <polygon id="path-1" points="9.25333333 0.4919 9.25333333 2.8389 0.850333333 2.8389 0.850333333 0.4919"></polygon>
    </defs>
    <g id="Desktop-HD" stroke="none" stroke-width="1" fill="none" fill-rule="evenodd" transform="translate(-688.000000, -586.000000)">
        <g id="Page-1-Copy-16" transform="translate(688.000000, 586.000000)">
            <path d="M24.0513282,56 L41.9486718,56 C42.5283656,56 43,55.5513919 43,54.9989293 C43,54.4486081 42.5283656,54 41.9486718,54 L24.0513282,54 C23.4716344,54 23,54.4486081 23,54.9989293 C23,55.5513919 23.4716344,56 24.0513282,56" id="Fill-1" fill="#FF7116"></path>
            <path d="M41.9486718,59 L24.0513282,59 C23.4716344,59 23,59.4488484 23,60.0005356 C23,60.5511516 23.4716344,61 24.0513282,61 L41.9486718,61 C42.5283656,61 43,60.5511516 43,60.0005356 C43,59.4488484 42.5283656,59 41.9486718,59" id="Fill-3" fill="#FF7116"></path>
            <path d="M41.9486718,64 L24.0513282,64 C23.4716344,64 23,64.4486081 23,65.0010707 C23,65.5513919 23.4716344,66 24.0513282,66 L41.9486718,66 C42.5283656,66 43,65.5513919 43,65.0010707 C43,64.4486081 42.5283656,64 41.9486718,64" id="Fill-5" fill="#FF7116"></path>
            <path d="M50.997667,32.4016739 C50.8833489,38.8288174 47.3033262,43.7195328 44.922477,46.9708574 L44.5736902,47.4479167 C43.085222,49.4934369 42.3701506,51.026433 42.0283629,52 L24.9728036,52 C24.6298494,51.026433 23.9159445,49.4934369 22.4263098,47.4479167 L22.07519,46.9685694 C19.6978403,43.7218208 16.1248167,38.8391137 16.004666,32.4245544 C16.0373284,32.2941354 16.0536595,32.1579961 16.0454939,32.0218569 L16.0256632,31.6775048 C16.0128316,31.5070448 16,31.3354408 16,31.1615487 C16,21.6993015 23.8517864,14 33.5,14 C43.1493801,14 51,21.6993015 51,31.1615487 C51,31.3388728 50.9860019,31.513909 50.9743368,31.686657 L50.9533396,32.0184249 C50.9463405,32.1476999 50.9626716,32.278119 50.997667,32.4016739" id="Fill-7" fill="#FFDD90"></path>
            <path d="M50.2909101,32.1472316 C50.1790881,38.5928234 46.6411321,43.4975768 44.2882587,46.7582339 L43.9435702,47.2366625 C42.4714393,49.2880541 41.7647703,50.8254505 41.4269987,51.801812 L39.8073088,51.801812 C39.9260476,45.0498882 43.5458528,34.8606215 43.5850481,34.7539216 C43.8352066,34.0540621 43.4674621,33.2830693 42.7654043,33.0329555 C42.0587354,32.7839891 41.2863566,33.1488339 41.0361981,33.8486935 C40.8736527,34.2995866 37.2158049,44.5955532 37.1016773,51.801812 L29.0458816,51.801812 C28.9306012,44.5955532 25.2739063,34.2995866 25.1113609,33.8486935 C24.8600496,33.1488339 24.0888236,32.7839891 23.3821546,33.0329555 C22.6800968,33.2830693 22.3111995,34.0540621 22.5625108,34.7539216 C22.6005533,34.8606215 26.2215113,45.0441517 26.3402502,51.801812 L24.5730013,51.801812 C24.2340769,50.8254505 23.5285607,49.2880541 22.0564298,47.2366625 L21.7094357,46.7559393 C19.3600208,43.4998714 15.8289815,38.6031492 15.7090899,32.1701778 C15.7425212,32.0393844 15.7586604,31.9028544 15.7505908,31.7663245 L15.7309931,31.4209839 C15.7183123,31.2500346 15.7067843,31.077938 15.7067843,30.9035468 C15.7067843,21.4141396 23.4640037,13.6927383 33,13.6927383 C42.5359963,13.6927383 50.2943686,21.4141396 50.2943686,30.9035468 C50.2943686,31.0813799 50.2805349,31.2569185 50.2690069,31.4301624 L50.2482564,31.7628825 C50.2413396,31.8925286 50.2574788,32.0221747 50.2909101,32.1472316 M42.1647934,56.6377267 L23.8352066,56.6377267 C23.2415125,56.6377267 22.7584875,56.1570035 22.7584875,55.5649912 C22.7584875,54.9741262 23.2415125,54.4945503 23.8352066,54.4945503 L42.1647934,54.4945503 C42.7584875,54.4945503 43.2415125,54.9741262 43.2415125,55.5649912 C43.2415125,56.1570035 42.7584875,56.6377267 42.1647934,56.6377267 M42.1647934,61.4724942 L23.8352066,61.4724942 C23.2415125,61.4724942 22.7584875,60.991771 22.7584875,60.400906 C22.7584875,59.8100409 23.2415125,59.3293177 23.8352066,59.3293177 L42.1647934,59.3293177 C42.7584875,59.3293177 43.2415125,59.8100409 43.2415125,60.400906 C43.2415125,60.991771 42.7584875,61.4724942 42.1647934,61.4724942 M42.1647934,66.3072617 L23.8352066,66.3072617 C23.2415125,66.3072617 22.7584875,65.8265385 22.7584875,65.2368208 C22.7584875,64.6448084 23.2415125,64.1640852 23.8352066,64.1640852 L42.1647934,64.1640852 C42.7584875,64.1640852 43.2415125,64.6448084 43.2415125,65.2368208 C43.2415125,65.8265385 42.7584875,66.3072617 42.1647934,66.3072617 M52.9711799,31.568987 C52.9873192,31.3487033 53,31.1272724 53,30.9035468 C53,19.9295195 44.0277249,11 33,11 C21.9722751,11 13,19.9295195 13,30.9035468 C13,31.1249777 13.0138337,31.3441141 13.0276673,31.5621031 C13.0092224,31.6492988 13,31.7410836 13,31.8340158 C13,39.2995668 17.0763156,44.9500722 19.5110381,48.3266077 L19.8545738,48.8027417 C21.0177532,50.4238918 21.5964609,51.6079164 21.8915788,52.3525211 C20.795262,53.0133721 20.0528561,54.1996914 20.0528561,55.5649912 C20.0528561,56.490871 20.4021557,57.3272605 20.9612658,57.9835222 C20.4021557,58.639784 20.0528561,59.4761735 20.0528561,60.400906 C20.0528561,61.3256384 20.4021557,62.162028 20.9612658,62.8182897 C20.4021557,63.4745515 20.0528561,64.310941 20.0528561,65.2368208 C20.0528561,67.3111586 21.7497838,69 23.8352066,69 L42.1647934,69 C44.2502162,69 45.9459911,67.3111586 45.9459911,65.2368208 C45.9459911,64.310941 45.5966915,63.4745515 45.0387342,62.8182897 C45.5966915,62.162028 45.9459911,61.3256384 45.9459911,60.400906 C45.9459911,59.4761735 45.5966915,58.639784 45.0387342,57.9835222 C45.5966915,57.3272605 45.9459911,56.490871 45.9459911,55.5649912 C45.9459911,54.2008387 45.2058908,53.0133721 44.1107268,52.3536684 C44.4058447,51.6033272 44.9833996,50.4215971 46.1454262,48.8027417 L46.4866563,48.3289023 C48.9225316,44.9523668 53,39.3007141 53,31.8340158 C53,31.7422309 52.9907776,31.653888 52.9711799,31.568987" id="Fill-9" fill="#414042"></path>
            <path d="M33.5006391,9 C34.3276523,9 35,8.3751653 35,7.60394076 L35,1.39486908 C35,0.6248347 34.3276523,0 33.5006391,0 C32.6723477,0 32,0.6248347 32,1.39486908 L32,7.60394076 C32,8.3751653 32.6723477,9 33.5006391,9" id="Fill-11" fill="#414042"></path>
            <path d="M9,33.5006391 C9,32.6723477 8.37524792,32 7.60293534,32 L1.39468465,32 C0.624752083,32 0,32.6723477 0,33.5006391 C0,34.3276523 0.624752083,35 1.39468465,35 L7.60293534,35 C8.37524792,35 9,34.3276523 9,33.5006391" id="Fill-13" fill="#414042"></path>
            <g id="Group-17" transform="translate(56.000000, 31.000000)">
                <mask id="mask-2" fill="white">
                    <use xlink:href="#path-1"></use>
                </mask>
                <g id="Clip-16"></g>
                <path d="M7.94922222,0.4919 L2.15366667,0.4919 C1.43477778,0.4919 0.850333333,1.0169 0.850333333,1.6659 C0.850333333,2.3129 1.43477778,2.8389 2.15366667,2.8389 L7.94922222,2.8389 C8.66811111,2.8389 9.25366667,2.3129 9.25366667,1.6659 C9.25366667,1.0169 8.66811111,0.4919 7.94922222,0.4919" id="Fill-15" fill="#414042" mask="url(#mask-2)"></path>
            </g>
            <path d="M13.6763329,50.3983928 L9.39844235,54.6757518 C8.86718588,55.2081021 8.86718588,56.0709966 9.39844235,56.6010273 C9.66407059,56.8666225 10.0132151,57 10.3611997,57 C10.7091843,57 11.0571689,56.8666225 11.3239571,56.6010273 L15.6006877,52.3236683 C16.1331041,51.791318 16.1331041,50.9295833 15.6006877,50.3983928 C15.0694312,49.8672024 14.2075894,49.8672024 13.6763329,50.3983928" id="Fill-18" fill="#414042"></path>
            <path d="M51.361844,16 C51.7097709,16 52.0576979,15.8677604 52.3232821,15.6009611 L56.6016237,11.3228934 C57.1327921,10.7916149 57.1327921,9.92973734 56.6016237,9.39845886 C56.0692954,8.86718038 55.2075964,8.86718038 54.6752682,9.39845886 L50.3992462,13.6753666 C49.8669179,14.2066451 49.8669179,15.0696827 50.3992462,15.6009611 C50.6648304,15.8677604 51.0127573,16 51.361844,16" id="Fill-20" fill="#414042"></path>
            <path d="M52.3236671,50.3983928 C51.7924106,49.8672024 50.9305688,49.8672024 50.3993123,50.3983928 C49.8668959,50.9295833 49.8668959,51.791318 50.3993123,52.3236683 L54.6760429,56.6010273 C54.9428311,56.8666225 55.2919756,57 55.6388003,57 C55.9879448,57 56.3359294,56.8666225 56.6015576,56.6010273 C57.1328141,56.0709966 57.1328141,55.2081021 56.6015576,54.6757518 L52.3236671,50.3983928 Z" id="Fill-22" fill="#414042"></path>
            <path d="M13.6763329,15.6010273 C13.9419611,15.8666225 14.2899457,16 14.6390903,16 C14.9870749,16 15.3362194,15.8666225 15.6006877,15.6010273 C16.1331041,15.0698368 16.1331041,14.2069423 15.6006877,13.6757518 L11.3239571,9.39839284 C10.7915407,8.86720239 9.93085878,8.86720239 9.39844235,9.39839284 C8.86718588,9.9295833 8.86718588,10.7924778 9.39844235,11.3236683 L13.6763329,15.6010273 Z" id="Fill-24" fill="#414042"></path>
            <path d="M62.203255,44.4438155 L56.8334034,42.1089702 C56.1623119,41.8172565 55.3926295,42.1316717 55.1069395,42.8081752 C54.8201291,43.4835437 55.1304669,44.2678792 55.7959565,44.5573228 L61.1658082,46.8921681 C61.3361018,46.9659478 61.5119972,47 61.6845316,47 C62.1942922,47 62.679405,46.6969355 62.8933924,46.1929631 C63.1790824,45.5164595 62.8709854,44.7332591 62.203255,44.4438155" id="Fill-26" fill="#414042"></path>
            <path d="M3.79642622,21.5570124 L9.16633276,23.8921544 C9.33547249,23.9659435 9.51133301,24 9.68383314,24 C10.1946127,24 10.6796293,23.6980322 10.8935743,23.1928605 C11.1792076,22.5174062 10.8700515,21.732971 10.2035738,21.4434906 L4.83478737,19.1094839 C4.16494922,18.8165978 3.39317917,19.1321882 3.10642571,19.8076425 C2.82079239,20.484232 3.12994846,21.2675319 3.79642622,21.5570124" id="Fill-28" fill="#414042"></path>
            <path d="M10.8935743,42.8073762 C10.6057007,42.1307437 9.83617091,41.8174039 9.16633276,42.1091732 L3.79642622,44.4433283 C3.12994846,44.7328271 2.82079239,45.517312 3.10642571,46.1928092 C3.32037068,46.698013 3.8065074,47 4.31616686,47 C4.48866699,47 4.66340738,46.9659413 4.83478737,46.8932828 L10.2035738,44.5568572 C10.8700515,44.2673584 11.1792076,43.4840087 10.8935743,42.8073762" id="Fill-30" fill="#414042"></path>
            <path d="M55.1069395,23.1929367 C55.3198065,23.6980607 55.8060397,24 56.3158003,24 C56.4883347,24 56.6653504,23.9659467 56.8334034,23.8910294 L62.203255,21.557243 C62.8709854,21.26779 63.1790824,20.4834289 62.8933924,19.8080384 C62.6065821,19.1326478 61.8346589,18.8170872 61.1658082,19.1088105 L55.7959565,21.443732 C55.1304669,21.7331851 54.8201291,22.5164111 55.1069395,23.1929367" id="Fill-32" fill="#414042"></path>
            <path d="M42.8259415,9.89831596 C42.99555,9.9675952 43.1720346,10 43.3439351,10 C43.8699509,10 44.3707545,9.69718269 44.5862032,9.19434951 L46.8954006,3.81962157 C47.1819016,3.15141215 46.8598745,2.38151869 46.1734183,2.10216693 C45.4858161,1.82169775 44.7008035,2.13904136 44.4131566,2.80501596 L42.1039591,8.18086131 C41.8186042,8.85018814 42.1406313,9.61784679 42.8259415,9.89831596" id="Fill-34" fill="#414042"></path>
            <path d="M21.413968,9.19434951 C21.6294446,9.69718269 22.1291669,10 22.6552506,10 C22.8271734,10 23.0036808,9.96647779 23.1733113,9.89831596 C23.8598564,9.61784679 24.1819251,8.84907073 23.8953871,8.18086131 L21.5858908,2.80501596 C21.2982067,2.13904136 20.5119464,1.82169775 19.8254013,2.10216693 C19.1411486,2.38151869 18.8179337,3.15141215 19.1044717,3.81850416 L21.413968,9.19434951 Z" id="Fill-36" fill="#414042"></path>
        </g>
    </g>
</svg>