<?xml version="1.0" encoding="UTF-8"?>
<svg width="69px" height="69px" viewBox="0 0 69 69" version="1.1" xmlns="http://www.w3.org/2000/svg" xmlns:xlink="http://www.w3.org/1999/xlink">
    <!-- Generator: Sketch 48.2 (47327) - http://www.bohemiancoding.com/sketch -->
    <title>Page 1 Copy 23</title>
    <desc>Created with Sketch.</desc>
    <defs></defs>
    <g id="Desktop-HD" stroke="none" stroke-width="1" fill="none" fill-rule="evenodd" transform="translate(-686.000000, -261.000000)">
        <g id="Page-1-Copy-23" transform="translate(686.000000, 261.000000)">
            <path d="M65,35 C65,51.5709709 51.5676883,65 35.0009241,65 C18.4323117,65 5,51.5709709 5,35 C5,18.4308773 18.4323117,5 35.0009241,5 C51.5676883,5 65,18.4308773 65,35" id="Fill-1" fill="#00FFDD"></path>
            <path d="M9.1083405,32 L1.8916595,32 C0.847463457,32 0,32.6708354 0,33.4992496 C0,34.3291646 0.847463457,35 1.8916595,35 L9.1083405,35 C10.1544282,35 11,34.3291646 11,33.4992496 C11,32.6708354 10.1544282,32 9.1083405,32" id="Fill-3" fill="#414042"></path>
            <path d="M67.1083405,32 L59.8916595,32 C58.8455718,32 58,32.6708354 58,33.4992496 C58,34.3291646 58.8455718,35 59.8916595,35 L67.1083405,35 C68.1544282,35 69,34.3291646 69,33.4992496 C69,32.6708354 68.1544282,32 67.1083405,32" id="Fill-5" fill="#414042"></path>
            <path d="M33.5,58 C32.6705,58 32,58.8455718 32,59.8916595 L32,67.1083405 C32,68.1544282 32.6705,69 33.5,69 C34.3295,69 35,68.1544282 35,67.1083405 L35,59.8916595 C35,58.8455718 34.3295,58 33.5,58" id="Fill-7" fill="#414042"></path>
            <path d="M33.5,11 C34.3295,11 35,10.1526823 35,9.10866575 L35,1.89133425 C35,0.847317744 34.3295,0 33.5,0 C32.6705,0 32,0.847317744 32,1.89133425 L32,9.10866575 C32,10.1526823 32.6705,11 33.5,11" id="Fill-9" fill="#414042"></path>
            <path d="M53.0577282,43.4877486 L35.3160999,33.2485472 L26.3745757,21.7287394 C25.7353567,20.9057615 24.5511987,20.7588684 23.7290762,21.3954051 C22.9069538,22.0300586 22.7579913,23.2127362 23.3953247,24.0357142 L32.5631211,35.8474249 C32.7120837,36.0395159 32.8987583,36.2033581 33.1099457,36.3238858 L51.1702407,46.7476452 C51.4681658,46.9190205 51.7924893,47 52.1130416,47 C52.7635743,47 53.3971365,46.6647824 53.7459728,46.0583777 C54.2682846,45.1600699 53.9590459,44.0075242 53.0577282,43.4877486" id="Fill-11" fill="#414042"></path>
        </g>
    </g>
</svg>