<?xml version="1.0" encoding="UTF-8"?>
<svg width="409px" height="409px" viewBox="0 0 409 409" version="1.1" xmlns="http://www.w3.org/2000/svg" xmlns:xlink="http://www.w3.org/1999/xlink">
    <!-- Generator: Sketch 48.2 (47327) - http://www.bohemiancoding.com/sketch -->
    <title>Page 1</title>
    <desc>Created with Sketch.</desc>
    <defs>
        <polygon id="path-1" points="0 409 408.064 409 408.064 0.394 0 0.394"></polygon>
    </defs>
    <g id="Desktop-HD" stroke="none" stroke-width="1" fill="none" fill-rule="evenodd" transform="translate(-1.000000, -223.000000)">
        <g id="Page-1" transform="translate(206.000000, 427.500000) rotate(-270.000000) translate(-206.000000, -427.500000) translate(1.500000, 222.500000)">
            <polygon id="Fill-1" fill="#FF7116" points="81.8035 128.6998 81.7915 119.4768 67.2035 119.4918 67.2115 128.7168"></polygon>
            <polygon id="Fill-2" fill="#FF7116" points="81.8054 131.3052 67.1944 131.3192 67.2074 145.3362 81.8174 145.3242"></polygon>
            <polygon id="Fill-3" fill="#FF7116" points="97.0144 147.9956 67.2084 148.0256 67.2214 161.2396 97.0294 161.2096"></polygon>
            <polygon id="Fill-4" fill="#FF7116" points="100.5496 164.0923 67.2276 164.1253 67.2396 177.3473 100.5656 177.3163"></polygon>
            <g id="Group-111" transform="translate(0.000000, 0.606000)">
                <path d="M71.7898,201.377 C74.7608,201.377 77.1778,203.794 77.1778,206.765 L77.1778,211.416 L77.1348,211.416 L77.1348,206.764 C77.1348,203.816 74.7368,201.419 71.7898,201.419 C69.9068,201.419 68.2568,202.403 67.3038,203.878 L67.3038,203.789 C68.2698,202.338 69.9188,201.377 71.7898,201.377 Z" id="Fill-5" fill="#FF7116"></path>
                <polygon id="Fill-7" fill="#FF7116" points="80.1775 206.7646 80.1775 211.4126 80.2205 211.4126 80.2205 196.4486 80.1775 196.4486"></polygon>
                <path d="M67.2996,199.6914 C68.5996,198.8634 70.1376,198.3774 71.7896,198.3774 C73.8406,198.3774 75.7196,199.1194 77.1776,200.3444 L77.1776,196.4514 L67.2966,196.4604 L67.2996,199.6914 Z" id="Fill-9" fill="#FF7116"></path>
                <mask id="mask-2" fill="white">
                    <use xlink:href="#path-1"></use>
                </mask>
                <g id="Clip-12"></g>
                <polygon id="Fill-11" fill="#FF7116" mask="url(#mask-2)" points="93.953 211.398 93.996 211.398 93.996 196.432 93.953 196.432"></polygon>
                <polygon id="Fill-13" fill="#FF7116" mask="url(#mask-2)" points="90.91 211.402 90.953 211.402 90.953 196.435 90.91 196.435"></polygon>
                <path d="M107.7283,198.0225 L107.7283,211.3835 L107.7713,211.3835 L107.7713,198.0215 C107.7713,197.4595 107.8823,196.9275 108.0443,196.4185 L107.9993,196.4185 C107.8393,196.9275 107.7283,197.4605 107.7283,198.0225" id="Fill-14" fill="#FF7116" mask="url(#mask-2)"></path>
                <polygon id="Fill-15" fill="#FF7116" mask="url(#mask-2)" points="104.6853 198.0215 104.6853 211.3865 104.7283 211.3865 104.7283 198.0225 104.7283 196.4215 104.6853 196.4215"></polygon>
                <path d="M121.3435,196.4033 C121.4475,196.9273 121.5035,197.4683 121.5035,198.0223 L121.5035,211.3713 L135.1115,211.3573 L135.0925,196.3903 L121.3435,196.4033 Z" id="Fill-16" fill="#FF7116" mask="url(#mask-2)"></path>
                <polygon id="Fill-17" fill="#FF7116" mask="url(#mask-2)" points="230.6941 196.291 230.7091 211.256 245.9681 211.242 245.9501 196.275"></polygon>
                <polygon id="Fill-18" fill="#FF7116" mask="url(#mask-2)" points="248.0183 196.2725 248.0363 211.2395 263.2913 211.2215 263.2763 196.2575"></polygon>
                <polygon id="Fill-19" fill="#FF7116" mask="url(#mask-2)" points="137.531 196.3877 137.544 211.3537 228.676 211.2577 228.661 196.2907"></polygon>
                <path d="M111.2927,192.9746 L111.4367,192.9746 C111.9677,192.7966 112.5257,192.6776 113.1157,192.6776 C113.7017,192.6776 114.2557,192.7946 114.7837,192.9706 L114.9267,192.9706 C114.3577,192.7656 113.7547,192.6346 113.1157,192.6346 C112.4737,192.6346 111.8647,192.7666 111.2927,192.9746" id="Fill-20" fill="#FF7116" mask="url(#mask-2)"></path>
                <path d="M122.8201,179.7373 L108.9991,179.7523 L109.0121,190.7153 C110.2261,190.0303 111.6261,189.6343 113.1161,189.6343 C115.8411,189.6343 118.2581,190.9463 119.7921,192.9653 L122.8341,192.9613 L122.8201,179.7373 Z" id="Fill-21" fill="#FF7116" mask="url(#mask-2)"></path>
                <path d="M67.2429,179.7969 L67.2579,193.0199 L77.1919,193.0099 C77.3489,188.5219 81.0399,184.9159 85.5649,184.9159 C87.6159,184.9159 89.4949,185.6579 90.9529,186.8839 L90.9529,186.6439 C90.9529,183.7989 92.3799,181.2849 94.5509,179.7679 L67.2429,179.7969 Z" id="Fill-22" fill="#FF7116" mask="url(#mask-2)"></path>
                <path d="M85.5652,187.916 C82.6962,187.916 80.3662,190.176 80.2082,193.006 L80.2512,193.006 C80.4092,190.2 82.7202,187.959 85.5652,187.959 C88.4072,187.959 90.7152,190.194 90.8782,192.995 L90.9212,192.995 C90.7582,190.17 88.4302,187.916 85.5652,187.916" id="Fill-23" fill="#FF7116" mask="url(#mask-2)"></path>
                <path d="M104.1179,179.7578 C105.0129,180.3808 105.7779,181.1728 106.3739,182.0878 L106.3709,179.7558 L104.1179,179.7578 Z" id="Fill-24" fill="#FF7116" mask="url(#mask-2)"></path>
                <path d="M99.3406,181.2559 C96.3696,181.2559 93.9526,183.6729 93.9526,186.6439 L93.9526,192.9919 L93.9956,192.9919 L93.9956,186.6439 C93.9956,183.6949 96.3946,181.2979 99.3406,181.2979 C102.2876,181.2979 104.6856,183.6949 104.6856,186.6439 L104.6856,192.9819 L104.7286,192.9819 L104.7286,186.6439 C104.7286,183.6729 102.3116,181.2559 99.3406,181.2559" id="Fill-25" fill="#FF7116" mask="url(#mask-2)"></path>
                <polygon id="Fill-26" fill="#FF7116" mask="url(#mask-2)" points="138.0886 192.9453 138.0736 179.7233 124.2526 179.7383 124.2646 192.9603"></polygon>
                <polygon id="Fill-27" fill="#FF7116" mask="url(#mask-2)" points="153.2253 192.9277 153.2123 179.7067 139.3913 179.7217 139.4063 192.9437"></polygon>
                <polygon id="Fill-28" fill="#FF7116" mask="url(#mask-2)" points="168.5896 192.916 168.5746 179.691 154.7626 179.705 154.7746 192.929"></polygon>
                <polygon id="Fill-29" fill="#FF7116" mask="url(#mask-2)" points="183.7234 192.8975 183.7114 179.6745 169.8974 179.6895 169.9094 192.9155"></polygon>
                <polygon id="Fill-30" fill="#FF7116" mask="url(#mask-2)" points="198.9753 192.8838 198.9623 179.6588 185.1513 179.6758 185.1653 192.8978"></polygon>
                <polygon id="Fill-31" fill="#FF7116" mask="url(#mask-2)" points="214.1179 192.8682 214.1019 179.6452 200.2869 179.6592 200.3019 192.8812"></polygon>
                <polygon id="Fill-32" fill="#FF7116" mask="url(#mask-2)" points="215.5388 179.6436 215.5538 192.8656 229.3678 192.8516 229.3538 179.6276"></polygon>
                <polygon id="Fill-33" fill="#FF7116" mask="url(#mask-2)" points="244.4871 179.6113 230.6751 179.6263 230.6901 192.8503 244.5001 192.8373"></polygon>
                <polygon id="Fill-34" fill="#FF7116" mask="url(#mask-2)" points="259.7566 192.8203 259.7436 179.5953 245.9296 179.6103 245.9436 192.8343"></polygon>
                <polygon id="Fill-35" fill="#FF7116" mask="url(#mask-2)" points="98.1179 128.0771 98.1089 118.8551 83.5209 118.8711 83.5289 128.0921"></polygon>
                <polygon id="Fill-36" fill="#FF7116" mask="url(#mask-2)" points="114.4343 128.0586 114.4233 118.8376 99.8343 118.8516 99.8463 128.0736"></polygon>
                <polygon id="Fill-37" fill="#FF7116" mask="url(#mask-2)" points="130.7546 128.041 130.7446 118.821 116.1576 118.836 116.1666 128.057"></polygon>
                <polygon id="Fill-38" fill="#FF7116" mask="url(#mask-2)" points="163.4519 128.0078 163.4439 118.7868 148.8539 118.8018 148.8659 128.0258"></polygon>
                <polygon id="Fill-39" fill="#FF7116" mask="url(#mask-2)" points="179.7742 127.9902 179.7642 118.7682 165.1762 118.7852 165.1842 128.0052"></polygon>
                <polygon id="Fill-40" fill="#FF7116" mask="url(#mask-2)" points="196.0906 127.9736 196.0786 118.7526 181.4896 118.7676 181.5026 127.9906"></polygon>
                <polygon id="Fill-41" fill="#FF7116" mask="url(#mask-2)" points="212.4099 127.959 212.3999 118.735 197.8129 118.753 197.8199 127.973"></polygon>
                <polygon id="Fill-42" fill="#FF7116" mask="url(#mask-2)" points="228.7634 127.9414 228.7544 118.7184 214.1644 118.7334 214.1754 127.9564"></polygon>
                <polygon id="Fill-43" fill="#FF7116" mask="url(#mask-2)" points="245.0847 127.9229 245.0747 118.7009 230.4857 118.7179 230.4947 127.9399"></polygon>
                <polygon id="Fill-44" fill="#FF7116" mask="url(#mask-2)" points="261.4744 127.9053 261.4614 118.6843 246.8744 118.7003 246.8854 127.9193"></polygon>
                <polygon id="Fill-45" fill="#FF7116" mask="url(#mask-2)" points="277.7947 127.8887 277.7837 118.6677 263.1957 118.6827 263.2057 127.9047"></polygon>
                <polygon id="Fill-46" fill="#FF7116" mask="url(#mask-2)" points="294.1179 127.8721 294.1079 118.6501 279.5229 118.6641 279.5319 127.8901"></polygon>
                <polygon id="Fill-47" fill="#FF7116" mask="url(#mask-2)" points="147.1453 128.0254 147.1353 118.8034 132.5473 118.8194 132.5593 128.0394"></polygon>
                <polygon id="Fill-48" fill="#FF7116" mask="url(#mask-2)" points="83.6453 144.7148 98.2593 144.6998 98.2453 130.6818 83.6303 130.6948"></polygon>
                <polygon id="Fill-49" fill="#FF7116" mask="url(#mask-2)" points="99.9207 144.6973 114.5357 144.6823 114.5227 130.6643 99.9067 130.6783"></polygon>
                <polygon id="Fill-50" fill="#FF7116" mask="url(#mask-2)" points="116.3611 144.6816 130.9711 144.6656 130.9581 130.6466 116.3461 130.6626"></polygon>
                <polygon id="Fill-51" fill="#FF7116" mask="url(#mask-2)" points="147.0984 144.6504 147.0844 130.6314 132.4714 130.6474 132.4854 144.6634"></polygon>
                <polygon id="Fill-52" fill="#FF7116" mask="url(#mask-2)" points="148.9236 144.6484 163.5356 144.6324 163.5206 130.6134 148.9106 130.6274"></polygon>
                <polygon id="Fill-53" fill="#FF7116" mask="url(#mask-2)" points="165.2976 144.6299 179.9106 144.6149 179.8956 130.5979 165.2836 130.6109"></polygon>
                <polygon id="Fill-54" fill="#FF7116" mask="url(#mask-2)" points="181.7351 144.6123 196.3481 144.5963 196.3341 130.5803 181.7191 130.5933"></polygon>
                <polygon id="Fill-55" fill="#FF7116" mask="url(#mask-2)" points="198.0886 144.5957 212.7056 144.5817 212.6896 130.5627 198.0746 130.5787"></polygon>
                <polygon id="Fill-56" fill="#FF7116" mask="url(#mask-2)" points="214.5291 144.5791 229.1421 144.5641 229.1281 130.5461 214.5141 130.5581"></polygon>
                <polygon id="Fill-57" fill="#FF7116" mask="url(#mask-2)" points="230.6511 144.5615 245.2601 144.5465 245.2471 130.5275 230.6341 130.5435"></polygon>
                <polygon id="Fill-58" fill="#FF7116" mask="url(#mask-2)" points="247.0886 144.5449 261.6996 144.5289 261.6856 130.5089 247.0736 130.5249"></polygon>
                <polygon id="Fill-59" fill="#FF7116" mask="url(#mask-2)" points="263.7185 144.5264 294.1375 144.4964 294.1235 130.4774 263.7055 130.5074"></polygon>
                <polygon id="Fill-60" fill="#FF7116" mask="url(#mask-2)" points="100.533 147.3867 100.548 160.6057 113.779 160.5927 113.764 147.3707"></polygon>
                <polygon id="Fill-61" fill="#FF7116" mask="url(#mask-2)" points="116.5378 176.6895 116.5258 163.4695 103.2938 163.4835 103.3068 176.7055"></polygon>
                <polygon id="Fill-62" fill="#FF7116" mask="url(#mask-2)" points="118.5906 176.6855 131.8226 176.6735 131.8076 163.4525 118.5756 163.4675"></polygon>
                <polygon id="Fill-63" fill="#FF7116" mask="url(#mask-2)" points="147.0564 163.4385 133.8254 163.4525 133.8384 176.6715 147.0714 176.6565"></polygon>
                <polygon id="Fill-64" fill="#FF7116" mask="url(#mask-2)" points="162.3152 163.4238 149.0852 163.4358 149.0982 176.6558 162.3292 176.6418"></polygon>
                <polygon id="Fill-65" fill="#FF7116" mask="url(#mask-2)" points="177.5984 163.4082 164.3654 163.4202 164.3794 176.6392 177.6124 176.6252"></polygon>
                <polygon id="Fill-66" fill="#FF7116" mask="url(#mask-2)" points="192.8503 163.3896 179.6173 163.4046 179.6303 176.6246 192.8643 176.6116"></polygon>
                <polygon id="Fill-67" fill="#FF7116" mask="url(#mask-2)" points="208.3113 163.375 195.0813 163.388 195.0923 176.609 208.3253 176.594"></polygon>
                <polygon id="Fill-68" fill="#FF7116" mask="url(#mask-2)" points="223.5935 163.3574 210.3635 163.3704 210.3755 176.5924 223.6085 176.5794"></polygon>
                <polygon id="Fill-69" fill="#FF7116" mask="url(#mask-2)" points="238.8591 176.5635 238.8441 163.3445 225.6121 163.3565 225.6251 176.5775"></polygon>
                <polygon id="Fill-70" fill="#FF7116" mask="url(#mask-2)" points="254.3103 176.5449 254.2953 163.3259 241.0653 163.3399 241.0793 176.5589"></polygon>
                <polygon id="Fill-71" fill="#FF7116" mask="url(#mask-2)" points="269.5486 163.3115 256.3176 163.3245 256.3296 176.5435 269.5616 176.5315"></polygon>
                <polygon id="Fill-72" fill="#FF7116" mask="url(#mask-2)" points="272.321 176.5273 294.169 176.5063 294.157 163.2873 272.31 163.3093"></polygon>
                <polygon id="Fill-73" fill="#FF7116" mask="url(#mask-2)" points="128.7488 160.5762 128.7348 147.3572 115.5058 147.3692 115.5178 160.5922"></polygon>
                <polygon id="Fill-74" fill="#FF7116" mask="url(#mask-2)" points="143.7283 147.3398 130.4993 147.3538 130.5113 160.5738 143.7453 160.5618"></polygon>
                <polygon id="Fill-75" fill="#FF7116" mask="url(#mask-2)" points="158.7039 147.3262 145.4709 147.3392 145.4859 160.5592 158.7169 160.5452"></polygon>
                <polygon id="Fill-76" fill="#FF7116" mask="url(#mask-2)" points="173.5154 147.3086 160.2824 147.3246 160.2944 160.5446 173.5284 160.5296"></polygon>
                <polygon id="Fill-77" fill="#FF7116" mask="url(#mask-2)" points="188.4851 147.2949 175.2561 147.3069 175.2681 160.5279 188.5011 160.5149"></polygon>
                <polygon id="Fill-78" fill="#FF7116" mask="url(#mask-2)" points="203.5603 147.2764 190.3273 147.2924 190.3403 160.5114 203.5753 160.4984"></polygon>
                <polygon id="Fill-79" fill="#FF7116" mask="url(#mask-2)" points="218.532 147.2607 205.3 147.2787 205.315 160.4957 218.545 160.4847"></polygon>
                <polygon id="Fill-80" fill="#FF7116" mask="url(#mask-2)" points="233.9021 147.248 220.6701 147.261 220.6821 160.479 233.9171 160.468"></polygon>
                <polygon id="Fill-81" fill="#FF7116" mask="url(#mask-2)" points="248.8728 147.2285 235.6418 147.2455 235.6558 160.4655 248.8848 160.4515"></polygon>
                <polygon id="Fill-82" fill="#FF7116" mask="url(#mask-2)" points="263.9402 147.2148 250.7052 147.2288 250.7182 160.4508 263.9532 160.4338"></polygon>
                <polygon id="Fill-83" fill="#FF7116" mask="url(#mask-2)" points="278.906 147.2012 265.677 147.2132 265.689 160.4342 278.921 160.4192"></polygon>
                <polygon id="Fill-84" fill="#FF7116" mask="url(#mask-2)" points="280.9236 160.4199 294.1536 160.4019 294.1426 147.1869 280.9076 147.1979"></polygon>
                <polygon id="Fill-85" fill="#FF7116" mask="url(#mask-2)" points="263.2742 192.8174 294.1872 192.7824 294.1742 179.5604 263.2602 179.5924"></polygon>
                <polygon id="Fill-86" fill="#FF7116" mask="url(#mask-2)" points="275.1326 204.0918 275.1416 211.2098 284.2236 211.2008 284.2176 204.0808"></polygon>
                <polygon id="Fill-87" fill="#FF7116" mask="url(#mask-2)" points="294.199 204.0723 285.113 204.0813 285.12 211.2013 294.209 211.1903"></polygon>
                <polygon id="Fill-88" fill="#FF7116" mask="url(#mask-2)" points="284.2097 196.2354 275.1257 196.2454 275.1317 203.3634 284.2157 203.3534"></polygon>
                <polygon id="Fill-89" fill="#FF7116" mask="url(#mask-2)" points="265.1589 204.1016 265.1669 211.2186 274.2529 211.2096 274.2449 204.0926"></polygon>
                <path d="M339.6042,18.7061 C337.4002,15.9891 333.6462,16.3821 332.2192,16.3831 L315.9162,16.3971 C315.0812,16.3571 314.3582,16.3981 313.8912,16.3981 L296.3312,16.4141 C295.4942,16.3751 294.7732,16.4151 294.3052,16.4161 L231.7662,16.4721 L221.6302,16.4801 L213.4362,16.4881 L203.3002,16.4971 L193.8502,16.5051 L183.7132,16.5151 L168.7242,16.5271 L158.5902,16.5361 L150.3952,16.5431 L140.2582,16.5531 L130.8082,16.5601 L120.6712,16.5701 L58.1342,16.6251 C57.6662,16.6271 56.9442,16.5861 56.1102,16.6271 L39.8052,16.6421 C39.3372,16.6421 38.6142,16.6021 37.7802,16.6431 L20.2192,16.6581 C18.7932,16.6601 15.0382,16.2741 12.8382,18.9961 C10.6402,21.7181 12.8442,25.0821 12.8442,25.0821 L37.2342,73.7501 C39.8272,77.7621 45.0062,77.1601 45.0062,77.1601 L47.0672,77.1581 L63.1042,77.1441 C63.9912,77.2081 64.5912,77.1431 64.5912,77.1431 L66.6532,77.1411 L81.4352,77.1271 C82.3222,77.1911 82.9232,77.1251 82.9232,77.1251 L84.9842,77.1231 L120.7272,77.0931 L140.3132,77.0751 L158.6422,77.0601 L193.9032,77.0281 L213.4902,77.0111 L231.8202,76.9951 L267.5632,76.9631 L269.6242,76.9611 C269.6242,76.9611 270.2232,77.0251 271.1102,76.9601 L287.1492,76.9451 L289.2102,76.9441 C289.2102,76.9441 289.8112,77.0081 290.6982,76.9411 L305.4772,76.9301 L307.5412,76.9281 C307.5412,76.9281 312.7192,77.5211 315.3052,73.5061 L339.6102,24.7941 C339.6102,24.7941 341.8072,21.4261 339.6042,18.7061" id="Fill-90" fill="#86FBFF" mask="url(#mask-2)"></path>
                <path d="M74.8083,308.0059 C74.8053,308.5559 74.3583,308.9999 73.8083,308.9999 L73.8023,308.9999 C73.2493,308.9969 72.8053,308.5469 72.8083,307.9939 L72.8473,301.9929 C72.8513,301.4439 73.2983,300.9999 73.8473,300.9999 L73.8543,300.9999 C74.4073,301.0039 74.8513,301.4549 74.8473,302.0069 L74.8083,308.0059 Z M73.8543,401.3729 L73.8473,401.3729 C73.2983,401.3729 72.8513,400.9299 72.8473,400.3799 L72.8083,394.3799 C72.8043,393.8269 73.2493,393.3769 73.8013,393.3729 L73.8083,393.3729 C74.3583,393.3729 74.8043,393.8169 74.8083,394.3659 L74.8473,400.3659 C74.8513,400.9189 74.4073,401.3689 73.8543,401.3729 Z M72.7013,369.7009 C72.7003,369.1489 73.1463,368.6989 73.6983,368.6979 L73.7013,368.6979 C74.2513,368.6979 74.7003,369.1449 74.7013,369.6949 C74.7113,373.7969 74.7263,377.9069 74.7443,382.0329 C74.7463,382.5849 74.3003,383.0349 73.7473,383.0369 L73.7443,383.0369 C73.1933,383.0369 72.7453,382.5919 72.7443,382.0409 C72.7263,377.9149 72.7113,373.8029 72.7013,369.7009 Z M72.6763,351.0709 L72.6783,345.0199 C72.6793,344.4679 73.1263,344.0209 73.6783,344.0209 L73.6793,344.0209 C74.2323,344.0219 74.6793,344.4689 74.6783,345.0219 L74.6763,351.0709 L74.6793,357.3589 C74.6803,357.9109 74.2323,358.3589 73.6803,358.3599 L73.6793,358.3599 C73.1273,358.3599 72.6803,357.9119 72.6793,357.3599 L72.6763,351.0709 Z M72.7443,320.3389 C72.7453,319.7879 73.1933,319.3429 73.7443,319.3429 L73.7473,319.3429 C74.3003,319.3449 74.7463,319.7949 74.7443,320.3469 C74.7263,324.4669 74.7113,328.5769 74.7013,332.6849 C74.7003,333.2349 74.2513,333.6819 73.7013,333.6819 L73.6983,333.6819 C73.1463,333.6809 72.7003,333.2319 72.7013,332.6789 C72.7113,328.5709 72.7263,324.4589 72.7443,320.3389 Z M104.7283,290.8629 L104.6853,290.8629 L74.8593,290.8629 L74.8163,290.8629 L71.8163,290.8629 L62.5843,290.8629 L62.5843,405.9999 L120.5023,405.9999 L120.5023,290.8629 L107.7283,290.8629 L104.7283,290.8629 Z" id="Fill-91" fill="#00FFDD" mask="url(#mask-2)"></path>
                <path d="M396.5945,335.9482 L396.5935,335.9482 C396.0415,335.9482 395.5935,335.5012 395.5935,334.9492 L395.5865,323.0462 C395.5865,322.4932 396.0335,322.0452 396.5855,322.0452 L396.5865,322.0452 C397.1385,322.0452 397.5865,322.4922 397.5865,323.0442 L397.5935,334.9472 C397.5935,335.5002 397.1465,335.9482 396.5945,335.9482 Z M397.5855,358.7582 C397.5845,359.3092 397.1375,359.7572 396.5855,359.7572 L396.5845,359.7572 C396.0325,359.7562 395.5845,359.3082 395.5855,358.7562 L395.5925,346.8522 C395.5925,346.3002 396.0405,345.8522 396.5925,345.8522 C397.1455,345.8522 397.5925,346.3012 397.5925,346.8522 L397.5855,358.7582 Z M397.5535,382.5662 C397.5525,383.1182 397.1055,383.5642 396.5535,383.5642 L396.5515,383.5642 C395.9995,383.5632 395.5525,383.1152 395.5535,382.5622 L395.5735,370.6582 C395.5735,370.1062 396.0215,369.6602 396.5735,369.6602 L396.5745,369.6602 C397.1265,369.6612 397.5735,370.1092 397.5735,370.6622 L397.5535,382.5662 Z M397.5135,400.4712 C397.5115,401.0222 397.0645,401.4692 396.5135,401.4692 L396.5105,401.4692 C395.9575,401.4672 395.5115,401.0182 395.5135,400.4662 L395.5295,394.5102 L396.5295,394.4692 L397.5295,394.5152 L397.5135,400.4712 Z M397.5735,311.1392 C397.5745,311.6912 397.1275,312.1392 396.5745,312.1402 L396.5735,312.1402 C396.0225,312.1402 395.5745,311.6932 395.5735,311.1412 L395.5545,299.2392 C395.5535,298.6862 395.9995,298.2382 396.5525,298.2372 L396.5545,298.2372 C397.1065,298.2372 397.5535,298.6832 397.5545,299.2352 L397.5735,311.1392 Z M396.5105,280.3332 C397.0355,280.3142 397.5115,280.7772 397.5135,281.3302 L397.5145,281.4592 L397.5295,287.3012 C397.5305,287.8532 397.0835,288.3172 396.5315,288.3182 L396.5295,288.3182 C395.9775,288.3182 395.5305,287.8862 395.5295,287.3352 L395.5135,281.3362 C395.5135,281.3352 395.5145,281.3342 395.5145,281.3332 C395.5135,280.7822 395.9585,280.3352 396.5105,280.3332 Z M398.6875,278.0732 L398.6715,278.0732 L395.6715,278.0732 L365.7595,278.0732 L362.7755,278.0732 L362.7595,278.0732 L350.1465,278.0732 L350.1465,409.0002 L408.0645,409.0002 L408.0645,278.0732 L398.6875,278.0732 Z" id="Fill-92" fill="#00FFDD" mask="url(#mask-2)"></path>
                <path d="M220.3289,273.3174 C220.3289,274.7164 219.1909,275.8544 217.7919,275.8544 L143.5339,275.8544 C142.1349,275.8544 140.9969,274.7164 140.9969,273.3174 L140.9969,228.9234 C140.9969,227.5244 142.1349,226.3864 143.5339,226.3864 L217.7919,226.3864 C219.1909,226.3864 220.3289,227.5244 220.3289,228.9234 L220.3289,273.3174 Z M217.7919,223.3864 L143.5339,223.3864 C140.4809,223.3864 137.9969,225.8714 137.9969,228.9234 L137.9969,273.3174 C137.9969,276.3704 140.4809,278.8544 143.5339,278.8544 L217.7919,278.8544 C220.8449,278.8544 223.3289,276.3704 223.3289,273.3174 L223.3289,228.9234 C223.3289,225.8714 220.8449,223.3864 217.7919,223.3864 Z" id="Fill-93" fill="#414042" mask="url(#mask-2)"></path>
                <path d="M323.0144,271.4482 C323.0144,278.0522 317.6414,283.4262 311.0364,283.4262 L113.3254,283.4262 C116.8624,280.2482 121.3694,276.0802 125.3124,272.0692 C133.2014,264.0422 133.0234,257.5182 132.9574,256.6272 L132.9574,233.1352 C132.9574,232.3062 132.2854,231.6352 131.4574,231.6352 L125.7314,231.6352 C124.1524,231.6352 122.6944,232.1492 121.5034,233.0122 L121.5034,218.5492 L297.7854,218.3662 C300.3124,218.3662 302.3674,216.3082 302.3674,213.7782 L302.2654,116.2982 C302.2554,113.8022 300.2464,111.7692 297.7684,111.7242 C297.7374,111.7222 297.7034,111.7192 297.6754,111.7212 L63.5974,111.9642 C61.0734,111.9702 59.0214,114.0292 59.0224,116.5532 L59.1224,214.0322 C59.1234,215.2552 59.6014,216.4042 60.4674,217.2692 C61.2604,218.0602 62.2954,218.5062 63.4014,218.5792 L63.4014,259.5052 C63.4014,259.6752 63.4364,259.8362 63.4884,259.9882 C63.4364,260.1402 63.4014,260.3022 63.4014,260.4712 L63.4024,268.8742 C63.3894,269.2052 63.2014,276.5872 70.7454,283.4262 L50.3934,283.4262 C43.7884,283.4262 38.4154,278.0522 38.4154,271.4482 L38.4154,103.9052 C38.4154,97.3012 43.7884,91.9272 50.3934,91.9272 L75.0984,91.9272 L75.1044,98.1402 L286.1684,97.9182 L286.1624,91.9272 L311.0364,91.9272 C317.6414,91.9272 323.0144,97.3012 323.0144,103.9052 L323.0144,271.4482 Z M121.5034,211.3712 L121.5034,198.0222 C121.5034,197.4692 121.4474,196.9272 121.3434,196.4032 C121.0934,195.1292 120.5494,193.9622 119.7914,192.9652 C118.2584,190.9462 115.8404,189.6352 113.1164,189.6352 C111.6254,189.6352 110.2264,190.0302 109.0124,190.7152 C108.5564,190.9712 108.1254,191.2682 107.7284,191.6022 L107.7284,186.6432 C107.7284,184.9642 107.2274,183.4012 106.3734,182.0882 C105.7784,181.1732 105.0124,180.3812 104.1184,179.7582 C102.7604,178.8132 101.1164,178.2562 99.3404,178.2562 C97.5594,178.2562 95.9104,178.8182 94.5504,179.7672 C92.3794,181.2852 90.9524,183.7992 90.9524,186.6432 L90.9524,186.8842 C89.4944,185.6582 87.6164,184.9162 85.5654,184.9162 C81.0394,184.9162 77.3494,188.5212 77.1924,193.0102 C77.1894,193.1072 77.1774,193.2042 77.1774,193.3032 L77.1774,196.4512 L77.1774,200.3442 C75.7194,199.1192 73.8404,198.3772 71.7894,198.3772 C70.1374,198.3772 68.5994,198.8632 67.2994,199.6912 C64.9604,201.1812 63.4014,203.7922 63.4014,206.7642 L63.4014,215.5802 C63.0954,215.5202 62.8144,215.3722 62.5874,215.1462 C62.2874,214.8472 62.1224,214.4502 62.1224,214.0272 L62.0224,116.5512 C62.0214,115.6782 62.7324,114.9672 63.6034,114.9642 L297.6034,114.7212 C297.6284,114.7222 297.6534,114.7232 297.6784,114.7232 L297.6834,114.7232 C298.5524,114.7232 299.2614,115.4342 299.2654,116.3052 L299.3674,213.7822 C299.3674,214.2052 299.2024,214.6022 298.9044,214.9022 C298.6054,215.2012 298.2084,215.3652 297.7844,215.3652 L297.7834,215.3652 L121.5034,215.5532 L121.5034,211.3712 Z M41.8464,81.2922 C41.7764,81.2922 41.6964,81.2972 41.6264,81.3042 C41.4254,81.3232 36.6414,81.7892 34.2384,78.1912 L4.9604,19.7672 C4.9304,19.7072 4.8894,19.6362 4.8524,19.5792 C4.8014,19.4982 3.9814,18.1812 3.9944,16.6922 C3.9934,16.6682 3.9964,16.6432 3.9954,16.6192 C4.0014,16.4022 4.0304,16.1822 4.0774,15.9632 C4.1264,15.7262 4.2024,15.5062 4.2994,15.2942 C4.3154,15.2602 4.3324,15.2242 4.3504,15.1902 C4.4524,14.9852 4.5724,14.7882 4.7214,14.6022 C6.4884,12.4172 9.5724,12.4842 11.4134,12.5242 C11.6504,12.5302 11.8984,12.5462 12.0424,12.5342 L341.6474,12.2442 C341.8264,12.2442 342.0354,12.2392 342.2694,12.2332 C342.7304,12.2222 343.2694,12.2112 343.8454,12.2312 C344.0614,12.2392 344.2834,12.2522 344.5074,12.2702 C346.0784,12.4052 347.8074,12.8632 348.9694,14.2982 C348.9814,14.3122 348.9894,14.3272 348.9994,14.3412 C349.0974,14.4662 349.1854,14.5942 349.2624,14.7262 C349.2984,14.7902 349.3264,14.8542 349.3584,14.9192 C349.4014,15.0062 349.4434,15.0942 349.4774,15.1842 C349.5044,15.2542 349.5264,15.3232 349.5474,15.3932 C349.5804,15.5022 349.6084,15.6132 349.6294,15.7262 C349.6384,15.7712 349.6494,15.8152 349.6564,15.8592 C349.6814,16.0362 349.6974,16.2172 349.6964,16.4062 C349.6964,16.4172 349.6994,16.4262 349.6994,16.4362 C349.6974,17.9042 348.9004,19.1932 348.8544,19.2642 C348.8124,19.3292 348.7744,19.3952 348.7394,19.4652 L319.5684,77.9382 C317.1664,81.5422 312.3844,81.0882 312.1904,81.0652 C312.1144,81.0562 312.0094,81.0672 311.9604,81.0522 L41.8464,81.2922 Z M6.7824,7.7952 C8.8904,4.8222 12.0564,4.6802 17.9374,4.6762 L335.8534,4.3942 L336.1244,4.3942 C341.8304,4.3942 344.9324,4.5712 347.0124,7.4942 C347.3204,7.9272 347.5954,8.3932 347.8404,8.8802 C347.7924,8.8632 347.7444,8.8532 347.6964,8.8382 C347.5354,8.7862 347.3754,8.7392 347.2154,8.6962 C347.1194,8.6702 347.0244,8.6422 346.9284,8.6192 C346.7624,8.5792 346.5974,8.5442 346.4324,8.5112 C346.3474,8.4942 346.2604,8.4732 346.1764,8.4592 C345.9434,8.4172 345.7134,8.3822 345.4874,8.3522 C345.3664,8.3372 345.2504,8.3272 345.1314,8.3142 C345.0184,8.3022 344.9044,8.2902 344.7924,8.2812 C344.6624,8.2702 344.5364,8.2622 344.4104,8.2552 C344.3184,8.2502 344.2274,8.2442 344.1374,8.2402 C344.0064,8.2342 343.8794,8.2302 343.7544,8.2262 C343.6764,8.2242 343.6014,8.2232 343.5264,8.2222 C343.3994,8.2202 343.2734,8.2192 343.1534,8.2192 C343.0934,8.2192 343.0364,8.2202 342.9794,8.2202 C342.6884,8.2222 342.4114,8.2282 342.1714,8.2342 C341.9724,8.2392 341.7934,8.2442 341.6414,8.2442 L12.0384,8.5342 C11.8494,8.5522 11.7024,8.5302 11.5014,8.5252 C11.1834,8.5182 10.8114,8.5112 10.4074,8.5132 L10.3674,8.5132 C10.1854,8.5142 9.9964,8.5182 9.8014,8.5252 C9.7654,8.5262 9.7294,8.5272 9.6924,8.5292 C9.5134,8.5362 9.3304,8.5462 9.1434,8.5582 C9.0944,8.5622 9.0474,8.5652 8.9984,8.5692 C8.8094,8.5842 8.6174,8.6022 8.4204,8.6252 C8.3754,8.6302 8.3324,8.6352 8.2874,8.6392 C7.8034,8.6992 7.3014,8.7852 6.7924,8.9082 C6.7554,8.9182 6.7174,8.9292 6.6804,8.9392 C6.4714,8.9922 6.2614,9.0512 6.0504,9.1172 C6.0274,9.1242 6.0034,9.1292 5.9804,9.1362 C6.2184,8.6662 6.4844,8.2132 6.7824,7.7952 Z M311.0364,87.9272 L286.1594,87.9272 L286.1554,85.0752 L311.8684,85.0522 C312.9204,85.1452 319.4754,85.4702 322.9874,80.0182 C323.0264,79.9572 323.0624,79.8932 323.0954,79.8282 L352.2784,21.3322 C352.5544,20.8752 353.4734,19.2182 353.6704,17.1412 C353.7744,16.8772 353.8234,16.5922 353.8064,16.3022 C353.7894,16.0272 353.3814,9.5412 350.2714,5.1752 C346.8634,0.3862 341.7914,0.3862 335.8484,0.3942 L17.9334,0.6762 C12.0244,0.6802 6.9194,0.6852 3.5194,5.4802 C1.3314,8.5642 0.4924,12.6642 0.1734,15.0182 C0.0474,15.5682 0.0124,16.1042 0.0104,16.6292 C0.0084,16.6612 -0.0006,16.6932 -0.0006,16.7262 C-0.0006,16.7732 0.0084,16.8182 0.0124,16.8652 C0.0724,19.2082 1.1214,21.1422 1.4254,21.6412 L30.7134,80.0882 C30.7454,80.1522 30.7824,80.2162 30.8224,80.2762 C33.7394,84.7922 38.7484,85.3302 40.9704,85.3302 C41.4274,85.3302 41.7664,85.3072 41.9464,85.2922 L75.0904,85.2622 L75.0944,87.9272 L50.3934,87.9272 C41.5834,87.9272 34.4154,95.0952 34.4154,103.9052 L34.4154,271.4482 C34.4154,280.2582 41.5834,287.4262 50.3934,287.4262 L71.8164,287.4262 L71.8164,290.8632 L74.8164,290.8632 L74.8164,287.4262 L74.8594,287.4262 L74.8594,283.6442 C74.8594,283.5702 74.8444,283.4982 74.8334,283.4262 L74.7904,283.4262 C74.7354,283.0472 74.5434,282.7002 74.2374,282.4622 C66.2714,276.2652 66.3914,269.2842 66.4014,268.9352 L66.4014,260.4712 C66.4014,260.3022 66.3674,260.1402 66.3154,259.9882 C66.3674,259.8362 66.4014,259.6752 66.4014,259.5052 L66.4014,218.6052 L66.4444,218.6052 L66.4444,215.6072 L66.4014,215.6072 L66.4014,206.7642 C66.4014,205.6642 66.7364,204.6422 67.3034,203.7892 C68.2704,202.3382 69.9184,201.3772 71.7894,201.3772 C74.7604,201.3772 77.1774,203.7942 77.1774,206.7642 L77.1774,211.4162 L77.1774,215.5972 L77.1344,215.5972 L77.1344,218.5942 L77.1774,218.5942 L77.1774,229.6902 C77.1774,230.5182 77.8494,231.1902 78.6774,231.1902 C79.5054,231.1902 80.1774,230.5182 80.1774,229.6902 L80.1774,218.5922 L80.2204,218.5922 L80.2204,215.5942 L80.1774,215.5942 L80.1774,211.4132 L80.1774,206.7642 L80.1774,196.4482 L80.1774,193.3032 C80.1774,193.2022 80.2024,193.1062 80.2074,193.0062 C80.3664,190.1762 82.6964,187.9162 85.5654,187.9162 C88.4304,187.9162 90.7584,190.1702 90.9214,192.9952 C90.9284,193.0992 90.9524,193.1982 90.9524,193.3032 L90.9524,196.4352 L90.9524,211.4022 L90.9524,215.5852 L90.9104,215.5862 L90.9104,218.5802 L90.9524,218.5802 L90.9524,230.8132 C90.9524,231.6412 91.6244,232.3132 92.4524,232.3132 C93.2814,232.3132 93.9524,231.6412 93.9524,230.8132 L93.9524,218.5772 L93.9954,218.5772 L93.9954,215.5832 L93.9524,215.5832 L93.9524,211.3982 L93.9524,196.4322 L93.9524,193.3032 L93.9524,192.9922 L93.9524,186.6432 C93.9524,183.6732 96.3694,181.2562 99.3404,181.2562 C102.3114,181.2562 104.7284,183.6732 104.7284,186.6432 L104.7284,192.9812 L104.7284,196.4222 L104.7284,198.0222 L104.7284,211.3862 L104.7284,215.5722 L104.6854,215.5722 L104.6854,218.5662 L104.7284,218.5662 L104.7284,230.8132 C104.7284,231.6412 105.4004,232.3132 106.2284,232.3132 C107.0564,232.3132 107.7284,231.6412 107.7284,230.8132 L107.7284,218.5622 L107.7714,218.5622 L107.7714,215.5682 L107.7284,215.5682 L107.7284,211.3842 L107.7284,198.0222 C107.7284,197.4602 107.8394,196.9272 107.9994,196.4182 C108.5044,194.8162 109.7214,193.5442 111.2924,192.9742 C111.8654,192.7662 112.4734,192.6352 113.1164,192.6352 C113.7544,192.6352 114.3584,192.7652 114.9264,192.9702 C117.0044,193.7182 118.5034,195.6892 118.5034,198.0222 L118.5034,215.5562 L118.4614,215.5562 L118.4614,218.5522 L118.5034,218.5522 L118.5034,238.8612 L118.5034,250.7622 L118.5034,258.0802 C118.5034,258.9082 119.1754,259.5802 120.0034,259.5802 C120.8314,259.5802 121.5034,258.9082 121.5034,258.0802 L121.5034,250.7622 L121.5034,238.8612 C121.5034,236.5312 123.4004,234.6352 125.7314,234.6352 L129.9574,234.6352 L129.9574,256.6862 C129.9574,256.7142 129.9644,256.7382 129.9654,256.7652 C129.9674,256.7952 129.9634,256.8222 129.9664,256.8512 C129.9734,256.9072 130.3814,262.6312 123.1714,269.9662 C118.2684,274.9552 112.4604,280.2072 108.8164,283.4262 L108.7504,283.4262 C106.6424,285.2872 105.2654,286.4622 105.2284,286.4942 C104.9464,286.7332 104.7704,287.0662 104.7114,287.4262 L104.7544,287.4262 C104.7424,287.5062 104.7284,287.5862 104.7284,287.6692 L104.7284,290.8632 L107.7284,290.8632 L107.7284,288.3582 C107.9954,288.1282 108.3624,287.8112 108.8054,287.4262 L311.0364,287.4262 C319.8464,287.4262 327.0144,280.2582 327.0144,271.4482 L327.0144,103.9052 C327.0144,95.0952 319.8464,87.9272 311.0364,87.9272 Z" id="Fill-94" fill="#414042" mask="url(#mask-2)"></path>
                <path d="M211.6394,344.873 C211.9154,345.157 212.2864,345.298 212.6684,345.298 C212.8724,345.298 213.0804,345.257 213.2784,345.177 C213.5334,345.073 213.7464,344.897 213.9064,344.681 L219.8344,338.904 C220.4274,338.326 220.4404,337.377 219.8624,336.783 C219.2844,336.188 218.3344,336.178 217.7414,336.756 L212.7014,341.665 L207.8704,336.705 C207.4474,336.269 206.7994,336.173 206.2324,336.401 C205.9774,336.505 205.7634,336.681 205.6044,336.897 L200.7104,341.665 L196.0634,336.894 C196.0504,336.88 196.0384,336.867 196.0274,336.854 L195.8764,336.701 C195.2964,336.112 194.3494,336.102 193.7564,336.68 C193.5554,336.877 193.4204,337.117 193.3544,337.371 L189.0244,341.589 L184.3404,336.781 C183.9144,336.345 183.2664,336.246 182.7024,336.477 C182.4484,336.58 182.2344,336.755 182.0754,336.973 L177.3344,341.589 L172.6514,336.781 C172.0744,336.188 171.1254,336.176 170.5304,336.754 C169.9374,337.332 169.9244,338.281 170.5024,338.875 L176.2714,344.797 C176.6984,345.234 177.3464,345.333 177.9104,345.101 C178.1634,344.998 178.3774,344.823 178.5364,344.605 L183.2774,339.989 L187.9604,344.797 C188.3874,345.234 189.0354,345.333 189.5994,345.101 C189.8534,344.998 190.0674,344.823 190.2264,344.605 L194.9274,340.027 L199.6484,344.873 C200.0734,345.31 200.7214,345.407 201.2864,345.177 C201.5414,345.073 201.7554,344.897 201.9144,344.681 L206.8084,339.913 L211.6394,344.873 Z" id="Fill-95" fill="#414042" mask="url(#mask-2)"></path>
                <path d="M252.7869,348.8301 L247.7479,353.7381 L242.9169,348.7781 C242.4919,348.3421 241.8419,348.2441 241.2779,348.4761 C241.0229,348.5781 240.8079,348.7551 240.6489,348.9731 L235.7569,353.7381 L231.1089,348.9671 C231.0969,348.9531 231.0849,348.9401 231.0729,348.9281 L230.9229,348.7741 C230.3429,348.1851 229.3949,348.1751 228.8029,348.7531 C228.6009,348.9501 228.4669,349.1901 228.3999,349.4441 L224.0699,353.6631 L219.3869,348.8551 C218.9619,348.4201 218.3139,348.3211 217.7469,348.5511 C217.4939,348.6541 217.2799,348.8281 217.1209,349.0451 L212.3809,353.6631 L207.6969,348.8551 C207.1189,348.2621 206.1699,348.2491 205.5759,348.8281 C204.9829,349.4061 204.9709,350.3551 205.5489,350.9491 L211.3169,356.8701 C211.7439,357.3071 212.3909,357.4051 212.9569,357.1751 C213.2099,357.0711 213.4239,356.8971 213.5829,356.6811 L218.3229,352.0621 L223.0069,356.8701 C223.4329,357.3071 224.0809,357.4051 224.6459,357.1751 C224.8989,357.0711 225.1129,356.8971 225.2719,356.6811 L229.9739,352.1011 L234.6939,356.9461 C235.1179,357.3831 235.7669,357.4801 236.3329,357.2501 C236.5879,357.1461 236.8019,356.9711 236.9609,356.7541 L241.8539,351.9871 L246.6849,356.9461 C246.9619,357.2301 247.3329,357.3711 247.7149,357.3711 C247.9189,357.3711 248.1269,357.3301 248.3239,357.2501 C248.5789,357.1461 248.7929,356.9711 248.9519,356.7541 L254.8809,350.9781 C255.4739,350.4001 255.4859,349.4511 254.9079,348.8571 C254.3309,348.2651 253.3819,348.2521 252.7869,348.8301" id="Fill-96" fill="#414042" mask="url(#mask-2)"></path>
                <path d="M312.2195,348.8301 L307.1805,353.7381 L302.3495,348.7781 C301.9245,348.3421 301.2755,348.2441 300.7105,348.4761 C300.4555,348.5781 300.2405,348.7551 300.0815,348.9731 L295.1895,353.7381 L290.5415,348.9671 C290.5295,348.9531 290.5175,348.9401 290.5055,348.9281 L290.3555,348.7741 C289.7765,348.1851 288.8275,348.1751 288.2355,348.7531 C288.0335,348.9501 287.8995,349.1901 287.8325,349.4441 L283.5025,353.6631 L278.8195,348.8551 C278.3935,348.4201 277.7455,348.3211 277.1795,348.5511 C276.9265,348.6541 276.7125,348.8281 276.5535,349.0451 L271.8135,353.6631 L267.1295,348.8551 C266.5505,348.2621 265.6015,348.2491 265.0085,348.8281 C264.4155,349.4061 264.4035,350.3551 264.9815,350.9491 L270.7495,356.8701 C271.1755,357.3071 271.8235,357.4051 272.3895,357.1751 C272.6425,357.0711 272.8565,356.8971 273.0155,356.6811 L277.7555,352.0621 L282.4395,356.8701 C282.8655,357.3071 283.5125,357.4051 284.0785,357.1751 C284.3315,357.0711 284.5455,356.8971 284.7045,356.6811 L289.4065,352.1011 L294.1265,356.9461 C294.5515,357.3831 295.1985,357.4801 295.7655,357.2501 C296.0205,357.1461 296.2345,356.9711 296.3935,356.7541 L301.2865,351.9871 L306.1175,356.9461 C306.3945,357.2301 306.7655,357.3711 307.1475,357.3711 C307.3515,357.3711 307.5595,357.3301 307.7565,357.2501 C308.0115,357.1461 308.2255,356.9711 308.3845,356.7541 L314.3135,350.9781 C314.9065,350.4001 314.9185,349.4511 314.3405,348.8571 C313.7635,348.2651 312.8145,348.2521 312.2195,348.8301" id="Fill-97" fill="#414042" mask="url(#mask-2)"></path>
                <path d="M350.4832,198.3828 C351.2522,197.2698 352.2812,196.3528 353.4832,195.7178 L353.4832,193.6668 C353.4832,187.8768 358.1932,183.1668 363.9832,183.1668 L391.1652,183.1668 C396.9552,183.1668 401.6652,187.8768 401.6652,193.6668 L401.6652,196.2448 C402.8012,196.6748 403.8252,197.3358 404.6652,198.1838 L404.6652,193.6668 C404.6652,186.2228 398.6092,180.1668 391.1652,180.1668 L363.9832,180.1668 C356.5392,180.1668 350.4832,186.2228 350.4832,193.6668 L350.4832,198.3828 Z" id="Fill-98" fill="#414042" mask="url(#mask-2)"></path>
                <path d="M407.0847,253.168 L407.0857,240.029 L407.0857,204.175 C407.0857,201.883 406.1597,199.805 404.6647,198.289 C403.8247,197.438 402.8027,196.772 401.6647,196.339 C400.7407,195.988 399.7437,195.787 398.6977,195.787 C396.5847,195.787 394.6577,196.578 393.1817,197.873 C392.5047,193.922 389.0637,190.902 384.9227,190.902 C382.6717,190.902 380.6297,191.799 379.1217,193.247 C378.0257,189.887 374.8677,187.449 371.1467,187.449 C367.1077,187.449 363.7277,190.32 362.9367,194.129 C362.8207,194.681 362.7597,195.252 362.7597,195.838 L362.7597,196.704 L362.7597,196.804 C361.3017,195.578 359.4227,194.836 357.3717,194.836 C355.9687,194.836 354.6467,195.187 353.4827,195.799 C352.2817,196.43 351.2537,197.342 350.4827,198.449 C349.8517,199.358 349.3927,200.395 349.1587,201.515 C349.0447,202.066 348.9827,202.639 348.9827,203.224 L348.9827,212.11 L348.9827,212.209 C347.7937,211.346 346.3357,210.831 344.7567,210.831 L339.0287,210.831 C338.3157,210.831 337.7227,211.33 337.5697,211.996 C337.5457,212.105 337.5287,212.216 337.5287,212.331 L337.5287,240.922 C337.4637,241.816 337.2897,248.339 345.1747,256.363 C352.0127,263.319 360.5707,270.766 362.7597,272.652 L362.7597,278.073 L362.7747,278.073 L365.7597,278.073 L365.7597,271.963 C365.7597,271.523 365.5667,271.105 365.2317,270.82 C365.1317,270.735 355.0857,262.166 347.3137,254.26 C340.1057,246.925 340.5137,241.201 340.5207,241.146 C340.5237,241.116 340.5207,241.089 340.5217,241.061 C340.5217,241.033 340.5287,241.008 340.5287,240.98 L340.5287,213.831 L344.7567,213.831 C347.0867,213.831 348.9827,215.728 348.9827,218.059 L348.9827,229.556 L348.9827,240.98 C348.9827,241.81 349.6547,242.48 350.4827,242.48 C350.6437,242.48 350.7957,242.449 350.9397,242.402 C351.5437,242.208 351.9827,241.648 351.9827,240.98 L351.9827,229.556 L351.9827,218.059 L351.9827,203.224 C351.9827,201.783 352.5597,200.48 353.4827,199.513 C354.4657,198.484 355.8407,197.836 357.3717,197.836 C360.3427,197.836 362.7597,200.253 362.7597,203.224 L362.7597,205.871 L362.7597,212.331 C362.7597,213.16 363.4317,213.831 364.2597,213.831 C365.0877,213.831 365.7597,213.16 365.7597,212.331 L365.7597,205.871 L365.7597,203.224 L365.7597,195.838 C365.7597,192.867 368.1767,190.449 371.1467,190.449 C374.1177,190.449 376.5347,192.867 376.5347,195.838 L376.5347,199.291 L376.5347,207.147 L376.5347,209.615 C376.5347,210.443 377.2067,211.115 378.0347,211.115 C378.8627,211.115 379.5347,210.443 379.5347,209.615 L379.5347,207.147 L379.5347,199.291 C379.5347,196.32 381.9517,193.902 384.9227,193.902 C387.8937,193.902 390.3107,196.32 390.3107,199.291 L390.3107,204.175 L390.3107,209.737 C390.3107,210.566 390.9817,211.237 391.8107,211.237 C392.6387,211.237 393.3107,210.566 393.3107,209.737 L393.3107,204.175 C393.3107,201.204 395.7277,198.787 398.6977,198.787 C399.7947,198.787 400.8137,199.12 401.6647,199.685 C403.1217,200.65 404.0857,202.301 404.0857,204.175 L404.0857,240.029 L404.0857,242.875 L404.0857,253.23 C404.0957,253.578 404.2167,260.559 396.2507,266.755 C395.8857,267.039 395.6717,267.477 395.6717,267.939 L395.6717,278.073 L398.6717,278.073 L398.6717,268.661 C398.6777,268.656 398.6827,268.652 398.6877,268.647 C404.6507,263.759 406.3897,258.41 406.8887,255.451 C407.1127,254.124 407.0887,253.275 407.0847,253.168" id="Fill-99" fill="#414042" mask="url(#mask-2)"></path>
                <path d="M397.5134,281.3301 C397.5114,280.7771 397.0354,280.3141 396.5104,280.3331 C395.9584,280.3351 395.5134,280.7821 395.5144,281.3331 C395.5144,281.3341 395.5134,281.3351 395.5134,281.3361 L395.5294,287.3351 C395.5304,287.8871 395.9774,288.3181 396.5294,288.3181 L396.5314,288.3181 C397.0834,288.3171 397.5304,287.8531 397.5294,287.3011 L397.5144,281.4591 L397.5134,281.3301 Z" id="Fill-100" fill="#414042" mask="url(#mask-2)"></path>
                <path d="M396.5925,345.8525 C396.0405,345.8525 395.5925,346.2995 395.5925,346.8525 L395.5855,358.7555 C395.5845,359.3085 396.0315,359.7555 396.5845,359.7565 L396.5855,359.7565 C397.1375,359.7565 397.5845,359.3095 397.5855,358.7575 L397.5925,346.8525 C397.5925,346.3005 397.1455,345.8525 396.5925,345.8525" id="Fill-101" fill="#414042" mask="url(#mask-2)"></path>
                <path d="M396.5867,322.0449 L396.5857,322.0449 C396.0337,322.0449 395.5867,322.4929 395.5867,323.0459 L395.5937,334.9489 C395.5937,335.5009 396.0417,335.9479 396.5937,335.9479 L396.5947,335.9479 C397.1467,335.9479 397.5937,335.4999 397.5937,334.9469 L397.5867,323.0439 C397.5867,322.4919 397.1387,322.0449 396.5867,322.0449" id="Fill-102" fill="#414042" mask="url(#mask-2)"></path>
                <path d="M396.575,369.6602 L396.573,369.6602 C396.021,369.6602 395.574,370.1062 395.573,370.6582 L395.554,382.5622 C395.553,383.1152 396,383.5632 396.552,383.5642 L396.554,383.5642 C397.105,383.5642 397.553,383.1182 397.554,382.5662 L397.573,370.6622 C397.574,370.1092 397.127,369.6612 396.575,369.6602" id="Fill-103" fill="#414042" mask="url(#mask-2)"></path>
                <path d="M396.5525,298.2373 C395.9995,298.2383 395.5535,298.6863 395.5545,299.2393 L395.5735,311.1413 C395.5745,311.6933 396.0225,312.1403 396.5735,312.1403 L396.5745,312.1403 C397.1275,312.1393 397.5745,311.6913 397.5735,311.1393 L397.5545,299.2353 C397.5535,298.6833 397.1065,298.2373 396.5545,298.2373 L396.5525,298.2373 Z" id="Fill-104" fill="#414042" mask="url(#mask-2)"></path>
                <path d="M395.5291,394.5098 L395.5131,400.4658 C395.5111,401.0188 395.9581,401.4668 396.5101,401.4688 L396.5131,401.4688 C397.0641,401.4688 397.5111,401.0228 397.5131,400.4718 L397.5291,394.5158 L396.5291,394.4688 L395.5291,394.5098 Z" id="Fill-105" fill="#414042" mask="url(#mask-2)"></path>
                <path d="M73.8542,301 L73.8472,301 C73.2982,301 72.8512,301.443 72.8472,301.993 L72.8082,307.994 C72.8052,308.547 73.2502,308.997 73.8022,309 L73.8082,309 C74.3582,309 74.8052,308.556 74.8082,308.006 L74.8472,302.007 C74.8512,301.455 74.4072,301.004 73.8542,301" id="Fill-106" fill="#414042" mask="url(#mask-2)"></path>
                <path d="M73.698,333.6816 L73.701,333.6816 C74.252,333.6816 74.7,333.2356 74.701,332.6846 C74.712,328.5776 74.726,324.4666 74.744,320.3466 C74.746,319.7946 74.301,319.3446 73.748,319.3426 L73.744,319.3426 C73.193,319.3426 72.746,319.7876 72.744,320.3386 C72.726,324.4586 72.712,328.5716 72.701,332.6786 C72.7,333.2316 73.146,333.6806 73.698,333.6816" id="Fill-107" fill="#414042" mask="url(#mask-2)"></path>
                <path d="M73.6794,358.3594 L73.6804,358.3594 C74.2324,358.3584 74.6804,357.9114 74.6794,357.3584 L74.6764,351.0714 L74.6784,345.0214 C74.6794,344.4684 74.2324,344.0214 73.6794,344.0204 L73.6784,344.0204 C73.1264,344.0204 72.6794,344.4674 72.6784,345.0194 L72.6764,351.0714 L72.6794,357.3604 C72.6804,357.9124 73.1274,358.3594 73.6794,358.3594" id="Fill-108" fill="#414042" mask="url(#mask-2)"></path>
                <path d="M73.7439,383.0371 L73.7479,383.0371 C74.3009,383.0351 74.7459,382.5851 74.7439,382.0331 C74.7259,377.9071 74.7119,373.7971 74.7009,369.6951 C74.6999,369.1441 74.2519,368.6981 73.7009,368.6981 L73.6979,368.6981 C73.1459,368.6991 72.6999,369.1481 72.7009,369.7011 C72.7119,373.8031 72.7259,377.9151 72.7439,382.0411 C72.7459,382.5921 73.1929,383.0371 73.7439,383.0371" id="Fill-109" fill="#414042" mask="url(#mask-2)"></path>
                <path d="M73.8083,393.373 L73.8013,393.373 C73.2493,393.377 72.8043,393.827 72.8083,394.38 L72.8473,400.38 C72.8513,400.93 73.2983,401.373 73.8473,401.373 L73.8543,401.373 C74.4073,401.369 74.8513,400.919 74.8473,400.366 L74.8083,394.366 C74.8043,393.816 74.3583,393.373 73.8083,393.373" id="Fill-110" fill="#414042" mask="url(#mask-2)"></path>
            </g>
        </g>
    </g>
</svg>