<?xml version="1.0" encoding="UTF-8"?>
<svg width="354px" height="552px" viewBox="0 0 354 552" version="1.1" xmlns="http://www.w3.org/2000/svg" xmlns:xlink="http://www.w3.org/1999/xlink">
    <!-- Generator: Sketch 48.2 (47327) - http://www.bohemiancoding.com/sketch -->
    <title>Group 25</title>
    <desc>Created with Sketch.</desc>
    <defs>
        <polygon id="path-1" points="0 552 354 552 354 0 0 0"></polygon>
    </defs>
    <g id="Desktop-HD" stroke="none" stroke-width="1" fill="none" fill-rule="evenodd" transform="translate(-1023.000000, -198.000000)">
        <g id="Group-25" transform="translate(1023.000000, 198.000000)">
            <polygon id="Fill-1" fill="#FFB100" points="82 126.983442 81.9876704 118 67 118.01461 67.0082197 127"></polygon>
            <polygon id="Fill-2" fill="#FFB100" points="81.9866658 130 67 130.013969 67.0133342 144 82 143.988027"></polygon>
            <polygon id="Fill-3" fill="#FFB100" points="96.98491 147 67 147.029447 67.013078 160 97 159.970553"></polygon>
            <polygon id="Fill-4" fill="#FFB100" points="99.9851521 163 67 163.032365 67.0118783 176 100 175.969596"></polygon>
            <polygon id="Fill-5" fill="#FFD413" points="80 196 80 206.341129 80 211 80.043 211 80.043 196"></polygon>
            <path d="M71.5437051,201 C74.5529221,201 77,203.40761 77,206.367068 L77,211 L76.9564469,211 L76.9564469,206.366072 C76.9564469,203.429525 74.5276005,201.041837 71.5426922,201.041837 C69.6354705,201.041837 67.9642459,202.022014 67,203.491284 L67,203.40263 C67.978426,201.957267 69.6476248,201 71.5437051,201 Z" id="Fill-6" fill="#FFD413"></path>
            <path d="M67.0040482,199.329052 C68.3197045,198.478294 69.8762271,197.978937 71.5481227,197.978937 C73.6228115,197.978937 75.5244408,198.741331 77,200 L77,196 L67,196.009247 L67.0040482,199.329052 Z" id="Fill-8" fill="#FFD413"></path>
            <mask id="mask-2" fill="white">
                <use xlink:href="#path-1"></use>
            </mask>
            <g id="Clip-11"></g>
            <polygon id="Fill-10" fill="#FFD413" mask="url(#mask-2)" points="94 211 94.043 211 94.043 196 94 196"></polygon>
            <polygon id="Fill-12" fill="#FFD413" mask="url(#mask-2)" points="91 211 91.042 211 91.042 196 91 196"></polygon>
            <polygon id="Fill-13" fill="#FFD413" mask="url(#mask-2)" points="105 197.603742 105 211 105.043 211 105.043 197.604744 105.043 196 105 196"></polygon>
            <path d="M108,197.607751 L108,211 L108.043,211 L108.043,197.606749 C108.043,197.043435 108.154,196.51019 108.316,196 L108.271,196 C108.111,196.51019 108,197.044437 108,197.607751" id="Fill-14" fill="#FFD413" mask="url(#mask-2)"></path>
            <path d="M121,196.013016 C121.104743,196.537681 121.161691,197.079367 121.161691,197.63407 L121.161691,211 L135,210.985982 L134.981695,196 L121,196.013016 Z" id="Fill-15" fill="#FFB100" mask="url(#mask-2)"></path>
            <path d="M235,198 L231,198 L231,211 L231.040691,211 L231.040691,198.042744 L235,198.042744 C237.183109,198.042744 238.959309,199.908549 238.959309,202.201789 L238.959309,210.992048 L239,210.992048 L239,202.201789 C239,199.884692 237.204873,198 235,198" id="Fill-16" fill="#FFD413" mask="url(#mask-2)"></path>
            <polygon id="Fill-17" fill="#FFD413" mask="url(#mask-2)" points="242 202.139507 242 211 242.043 211 242.043 202.139507 242.043 196 242 196"></polygon>
            <path d="M239.405,196.274 L239.405,196 L239,196.001 C239.138,196.087 239.274,196.178 239.405,196.274" id="Fill-18" fill="#FFD413" mask="url(#mask-2)"></path>
            <path d="M138.01407,211 L228.943722,210.905391 L228.943722,196.384411 C228.943722,196.249967 228.967841,196.12349 229,196 L138,196.095605 L138.01407,211 Z" id="Fill-19" fill="#FFB100" mask="url(#mask-2)"></path>
            <path d="M111,192.34 L111.159604,192.34 C111.744084,192.162 112.357182,192.043 113.007705,192.043 C113.652724,192.043 114.262521,192.16 114.842598,192.336 L115,192.336 C114.373693,192.131 113.709961,192 113.007705,192 C112.299945,192 111.629609,192.132 111,192.34" id="Fill-20" fill="#FFB100" mask="url(#mask-2)"></path>
            <path d="M122.986844,179 L109,179.014741 L109.012144,189.788781 C110.241723,189.115588 111.65751,188.726414 113.166402,188.726414 C115.923088,188.726414 118.370103,190.0158 119.921498,192 L123,191.996069 L122.986844,179 Z" id="Fill-21" fill="#FFB100" mask="url(#mask-2)"></path>
            <path d="M67,179.028449 L67.0138426,192 L76.837148,191.99019 C76.9913941,187.587534 80.6408979,184.050106 85.1160142,184.050106 C87.142967,184.050106 89.0008423,184.777996 90.4424507,185.980682 L90.4424507,185.745246 C90.4424507,182.954347 91.8534076,180.488153 94,179 L67,179.028449 Z" id="Fill-22" fill="#FFB100" mask="url(#mask-2)"></path>
            <path d="M99.5010208,181 C96.4682628,181 94,183.47137 94,186.509202 L94,193 L94.0438938,193 L94.0438938,186.509202 C94.0438938,183.493865 96.4927617,181.042945 99.5010208,181.042945 C102.508259,181.042945 104.956106,183.493865 104.956106,186.509202 L104.956106,192.989775 L105,192.989775 L105,186.509202 C105,183.47137 102.533779,181 99.5010208,181" id="Fill-23" fill="#FFB100" mask="url(#mask-2)"></path>
            <path d="M85.5010267,188 C82.5554415,188 80.1622177,190.220039 80,193 L80.0441478,193 C80.2063655,190.243615 82.5790554,188.04224 85.5,188.04224 C88.4178645,188.04224 90.7874743,190.237721 90.9558522,192.989194 L91,192.989194 C90.8316222,190.214145 88.4425051,188 85.5010267,188" id="Fill-24" fill="#FFB100" mask="url(#mask-2)"></path>
            <path d="M104,179.001715 C104.79344,179.536021 105.472518,180.215266 106,181 L105.99734,179 L104,179.001715 Z" id="Fill-25" fill="#FFB100" mask="url(#mask-2)"></path>
            <polygon id="Fill-26" fill="#FFB100" mask="url(#mask-2)" points="138 191.985269 137.985834 179 124 179.014731 124.012142 192"></polygon>
            <polygon id="Fill-27" fill="#FFB100" mask="url(#mask-2)" points="153 191.984286 152.986843 179 139 179.014731 139.014169 192"></polygon>
            <polygon id="Fill-28" fill="#FFB100" mask="url(#mask-2)" points="169 191.987234 168.984812 179 155 179.013748 155.01215 192"></polygon>
            <polygon id="Fill-29" fill="#FFB100" mask="url(#mask-2)" points="184 191.982328 183.987849 179 170 179.014727 170.011138 192"></polygon>
            <polygon id="Fill-30" fill="#FFB100" mask="url(#mask-2)" points="199 191.986253 198.985822 179 185 179.016693 185.013166 192"></polygon>
            <polygon id="Fill-31" fill="#FFB100" mask="url(#mask-2)" points="214 191.987232 213.983804 179 200 179.01375 200.015183 192"></polygon>
            <polygon id="Fill-32" fill="#FFB100" mask="url(#mask-2)" points="216 179.015712 216.016197 192 230 191.986252 229.985828 179"></polygon>
            <polygon id="Fill-33" fill="#FFB100" mask="url(#mask-2)" points="231.015336 192 240 191.991158 240 179 231 179.007859"></polygon>
            <polygon id="Fill-34" fill="#FFB100" mask="url(#mask-2)" points="242 192 242.043 192 242.043 179 242 179.000983"></polygon>
            <polygon id="Fill-35" fill="#FFB100" mask="url(#mask-2)" points="253 179.910246 253 189.773535 253 192 253.043 192 253.043 189.774518 253.043 179.911229 253.043 179 253 179"></polygon>
            <path d="M256,179.915091 L256,189.777635 L256,192 L256.043,192 L256.043,189.776652 L256.043,179.914109 C256.043,179.601542 256.084,179.298805 256.137,179 L256.095,179.000983 C256.041,179.298805 256,179.602525 256,179.915091" id="Fill-36" fill="#FFB100" mask="url(#mask-2)"></path>
            <polygon id="Fill-37" fill="#FFB100" mask="url(#mask-2)" points="99 126.985385 98.9897246 118 84 118.015589 84.0082203 127"></polygon>
            <polygon id="Fill-38" fill="#FFB100" mask="url(#mask-2)" points="115 126.985383 114.989725 118 100 118.013642 100.01233 127"></polygon>
            <polygon id="Fill-39" fill="#FFB100" mask="url(#mask-2)" points="131 126.984409 130.989724 118 116 118.014617 116.009248 127"></polygon>
            <polygon id="Fill-40" fill="#FFB100" mask="url(#mask-2)" points="164 126.982466 163.99178 118 149 118.014612 149.01233 127"></polygon>
            <polygon id="Fill-41" fill="#FFB100" mask="url(#mask-2)" points="180 126.985385 179.988697 118 165 118.016564 165.007193 127"></polygon>
            <polygon id="Fill-42" fill="#FFB100" mask="url(#mask-2)" points="196 126.983438 195.986646 118 181 118.014614 181.013354 127"></polygon>
            <polygon id="Fill-43" fill="#FFB100" mask="url(#mask-2)" points="213 126.986361 212.989724 118 198 118.017536 198.007193 127"></polygon>
            <polygon id="Fill-44" fill="#FFB100" mask="url(#mask-2)" points="229 126.985386 228.990753 118 214 118.014614 214.011302 127"></polygon>
            <polygon id="Fill-45" fill="#FFB100" mask="url(#mask-2)" points="245 126.98344 244.990753 118 230 118.01656 230.010275 127"></polygon>
            <polygon id="Fill-46" fill="#FFB100" mask="url(#mask-2)" points="262 126.986356 261.985617 118 247 118.015593 247.011301 127"></polygon>
            <polygon id="Fill-47" fill="#FFB100" mask="url(#mask-2)" points="278 126.984411 277.989725 118 263 118.014615 263.009248 127"></polygon>
            <polygon id="Fill-48" fill="#FFB100" mask="url(#mask-2)" points="295 126.982468 294.99075 118 280 118.013636 280.00925 127"></polygon>
            <polygon id="Fill-49" fill="#FFB100" mask="url(#mask-2)" points="148 126.986358 147.990752 118 133 118.015591 133.011304 127"></polygon>
            <polygon id="Fill-50" fill="#FFB100" mask="url(#mask-2)" points="84.0153804 144 99 143.985035 98.9866703 130 84 130.012969"></polygon>
            <polygon id="Fill-51" fill="#FFB100" mask="url(#mask-2)" points="100.01538 144 115 143.985035 114.987696 130 100 130.013967"></polygon>
            <polygon id="Fill-52" fill="#FFB100" mask="url(#mask-2)" points="116.01436 144 131 143.98404 130.986666 130 116 130.01596"></polygon>
            <polygon id="Fill-53" fill="#FFB100" mask="url(#mask-2)" points="147 143.98703 146.984619 130 132 130.015964 132.015381 144"></polygon>
            <polygon id="Fill-54" fill="#FFB100" mask="url(#mask-2)" points="149.013333 144 164 143.98404 163.985641 130 149 130.013965"></polygon>
            <polygon id="Fill-55" fill="#FFB100" mask="url(#mask-2)" points="165.014357 144 180 143.985034 179.985643 130 165 130.01297"></polygon>
            <polygon id="Fill-56" fill="#FFB100" mask="url(#mask-2)" points="182.017431 144 197 143.984036 196.98667 130 182 130.01297"></polygon>
            <polygon id="Fill-57" fill="#FFB100" mask="url(#mask-2)" points="198.014354 144 213 143.986033 212.983595 130 198 130.015962"></polygon>
            <polygon id="Fill-58" fill="#FFB100" mask="url(#mask-2)" points="215.014357 144 230 143.985035 229.985643 130 215 130.011972"></polygon>
            <polygon id="Fill-59" fill="#FFB100" mask="url(#mask-2)" points="231.017435 144 246 143.985036 245.987693 130 231 130.015961"></polygon>
            <polygon id="Fill-60" fill="#FFB100" mask="url(#mask-2)" points="247.016409 144 262 143.984041 261.985642 130 247 130.015959"></polygon>
            <polygon id="Fill-61" fill="#FFB100" mask="url(#mask-2)" points="264.012815 144 294 143.970105 293.986199 130 264 130.029895"></polygon>
            <polygon id="Fill-62" fill="#FFB100" mask="url(#mask-2)" points="101 147.015716 101.014723 160 114 159.987231 113.986259 147"></polygon>
            <polygon id="Fill-63" fill="#FFB100" mask="url(#mask-2)" points="116 175.984285 115.988221 163 103 163.01375 103.01276 176"></polygon>
            <polygon id="Fill-64" fill="#FFB100" mask="url(#mask-2)" points="119.01374 176 132 175.988211 131.98626 163 119 163.014736"></polygon>
            <polygon id="Fill-65" fill="#FFB100" mask="url(#mask-2)" points="146.985277 163 134 163.013753 134.011778 176 147 175.985264"></polygon>
            <polygon id="Fill-66" fill="#FFB100" mask="url(#mask-2)" points="161.986258 163 149 163.01179 149.011779 176 162 175.986245"></polygon>
            <polygon id="Fill-67" fill="#FFB100" mask="url(#mask-2)" points="176.986261 163 164 163.01179 164.013739 176 177 175.986244"></polygon>
            <polygon id="Fill-68" fill="#FFB100" mask="url(#mask-2)" points="192.986262 163 180 163.014734 180.012757 176 193 175.987231"></polygon>
            <polygon id="Fill-69" fill="#FFB100" mask="url(#mask-2)" points="207.985277 163 195 163.01277 195.010797 176 208 175.985265"></polygon>
            <polygon id="Fill-70" fill="#FFB100" mask="url(#mask-2)" points="222.985277 163 210 163.012769 210.01276 176 223 175.987231"></polygon>
            <polygon id="Fill-71" fill="#FFB100" mask="url(#mask-2)" points="239 175.986247 238.98528 163 226 163.011789 226.012758 176"></polygon>
            <polygon id="Fill-72" fill="#FFD413" mask="url(#mask-2)" points="253 176 253.043 176 253.043 163 253 163"></polygon>
            <polygon id="Fill-73" fill="#FFD413" mask="url(#mask-2)" points="242 176 242.043 176 242.043 163 242 163"></polygon>
            <path d="M258,176 L258.064408,176 C258.985641,175.404286 260.181096,175.030714 261.504391,175.030714 C262.822808,175.030714 264.015335,175.402143 264.934616,175.995 L265,175.995 C264.069009,175.383571 262.851108,175 261.504391,175 C260.152795,175 258.931967,175.385714 258,176" id="Fill-74" fill="#FFD413" mask="url(#mask-2)"></path>
            <path d="M256,163.012783 L256.010797,173.555556 C257.432012,172.386431 259.248773,171.682399 261.226501,171.682399 C264.345715,171.682399 267.065459,173.430678 268.462137,176 L269,175.999017 L268.986259,163 L256,163.012783 Z" id="Fill-75" fill="#FFB100" mask="url(#mask-2)"></path>
            <path d="M294,175.985265 L293.987923,163 L272,163.022593 L272.011071,175.557957 C272.976257,175.182711 274.024978,174.969548 275.127041,174.969548 C276.605517,174.969548 277.995425,175.344794 279.204172,176 L294,175.985265 Z" id="Fill-76" fill="#FFB100" mask="url(#mask-2)"></path>
            <polygon id="Fill-77" fill="#FFB100" mask="url(#mask-2)" points="129 159.984284 128.986258 147 116 147.011787 116.011779 160"></polygon>
            <polygon id="Fill-78" fill="#FFB100" mask="url(#mask-2)" points="142.983316 147 130 147.013752 130.011777 160 143 159.988212"></polygon>
            <polygon id="Fill-79" fill="#FFB100" mask="url(#mask-2)" points="157.988223 147 145 147.012771 145.014721 160 158 159.986247"></polygon>
            <polygon id="Fill-80" fill="#FFB100" mask="url(#mask-2)" points="172.987241 147 160 147.015715 160.011777 160 173 159.985267"></polygon>
            <polygon id="Fill-81" fill="#FFB100" mask="url(#mask-2)" points="187.984296 147 175 147.011789 175.010797 160 188 159.987229"></polygon>
            <polygon id="Fill-82" fill="#FFB100" mask="url(#mask-2)" points="202.984301 147 190 147.015716 190.012756 160 203 159.987231"></polygon>
            <polygon id="Fill-83" fill="#FFB100" mask="url(#mask-2)" points="217.98724 147 205 147.01768 205.014723 160 218 159.989195"></polygon>
            <polygon id="Fill-84" fill="#FFB100" mask="url(#mask-2)" points="221 147.012772 221.013739 160 234 159.98821 233.98528 147"></polygon>
            <path d="M248.994107,147 L236,147.016694 L236.012768,160 L239.848141,159.99509 C240.38146,155.963892 243.831822,152.842046 248.006044,152.842046 C248.342928,152.842046 248.67392,152.86856 249,152.907841 L248.994107,147 Z" id="Fill-85" fill="#FFB100" mask="url(#mask-2)"></path>
            <path d="M243,160 L243.042959,160 C243.530788,157.741649 245.58043,156.040178 248.031981,156.040178 C248.363246,156.040178 248.686874,156.076618 249,156.135482 L249,156.095305 C248.685919,156.03644 248.3642,156 248.031981,156 C245.558473,156 243.489737,157.719224 243,160" id="Fill-86" fill="#FFD413" mask="url(#mask-2)"></path>
            <path d="M251,157 L251,157.042757 C251.985531,157.703316 252.710624,158.756545 252.962795,160 L253,159.999127 C252.746176,158.734729 252.005374,157.666667 251,157" id="Fill-87" fill="#FFD413" mask="url(#mask-2)"></path>
            <path d="M263.987243,147 L251,147.013758 L251.005888,153.358001 C253.839825,154.385895 255.950559,156.923199 256.361715,160 L264,159.990173 L263.987243,147 Z" id="Fill-88" fill="#FFB100" mask="url(#mask-2)"></path>
            <polygon id="Fill-89" fill="#FFB100" mask="url(#mask-2)" points="266.01276 160 279 159.984282 278.986258 147 266 147.010806"></polygon>
            <polygon id="Fill-90" fill="#FFB100" mask="url(#mask-2)" points="281.015703 160 294 159.982317 293.989204 147 281 147.010806"></polygon>
            <path d="M270,183.202268 L270,190.923629 L270,192 L270.039729,192 L270.039729,190.923629 L270.039729,183.202268 C270.039729,181.47811 270.817156,179.957429 272,179 L271.9386,179 C270.7693,179.967259 270,181.483025 270,183.202268" id="Fill-91" fill="#FFD413" mask="url(#mask-2)"></path>
            <path d="M279.059459,179 L279,179 C280.183784,179.958775 280.962162,181.481997 280.962162,183.210741 L280.962162,192 L281,192 L281,189.65469 L281,183.210741 C281,181.486914 280.231532,179.967625 279.059459,179" id="Fill-92" fill="#FFD413" mask="url(#mask-2)"></path>
            <path d="M294,188.480051 C293.230176,186.443501 291.369689,185 289.192215,185 C286.329704,185 284,187.488546 284,190.54749 L284,193 L284.042393,193 L284.042393,190.54749 C284.042393,187.513256 286.352828,185.044273 289.192215,185.044273 C291.39763,185.044273 293.267752,186.540283 294,188.627284 L294,188.480051 Z" id="Fill-93" fill="#FFD413" mask="url(#mask-2)"></path>
            <path d="M284.23476,183 C285.748638,181.893502 287.698314,181.223827 289.826459,181.223827 C291.764721,181.223827 293.551492,181.785199 295,182.721119 L294.99585,179 L283,179.011733 C283.779248,180.145307 284.23476,181.465704 284.23476,182.879964 L284.23476,183 Z" id="Fill-94" fill="#FFB100" mask="url(#mask-2)"></path>
            <path d="M267,179 C267.055,179.3018 267.095,179.607532 267.095,179.923094 L267.095,183.198654 L267.095,190.920599 L267.095,192 L267.137,192 L267.137,190.920599 L267.137,183.198654 L267.137,179.924077 C267.137,179.607532 267.097,179.3018 267.042,179 L267,179 Z" id="Fill-95" fill="#FFD413" mask="url(#mask-2)"></path>
            <path d="M340.018505,18.3498922 C337.811647,15.625272 334.055484,16.0193742 332.626281,16.020377 L316.309543,16.0344163 C315.47484,15.9943041 314.751231,16.0354191 314.282837,16.0354191 L296.70804,16.051464 C295.870335,16.0123546 295.148727,16.0524668 294.681334,16.0534696 L232.088635,16.1096267 L221.944094,16.1176491 L213.74419,16.1256715 L203.598649,16.1346968 L194.140686,16.1427192 L183.995144,16.1527473 L168.994514,16.1647809 L158.850974,16.1738062 L150.650069,16.1808258 L140.504528,16.1908538 L131.045564,16.1978735 L120.900022,16.2079015 L58.3103258,16.2630558 C57.8419315,16.2650614 57.1203239,16.2239464 56.2846203,16.2650614 L39.9668819,16.2801034 C39.4974867,16.2801034 38.7738775,16.2399913 37.9391747,16.2811063 L20.3633771,16.2961483 C18.9361755,16.2981539 15.1780114,15.9110713 12.9761576,18.6407056 C10.7763055,21.3703398 12.9821627,24.7437746 12.9821627,24.7437746 L37.3927147,73.5482707 C39.9878996,77.5715229 45.1712637,76.9678345 45.1712637,76.9678345 L47.2350012,76.9658289 L63.2855146,76.9517896 C64.1722612,77.0159691 64.7727668,76.9507868 64.7727668,76.9507868 L66.8375051,76.9487812 L81.631961,76.9347419 C82.5187076,76.9989214 83.120214,76.9327363 83.120214,76.9327363 L85.1839516,76.9307307 L120.956069,76.9006466 L140.558573,76.8825961 L158.903018,76.867554 L194.194731,76.8354643 L213.797235,76.8184166 L232.143681,76.8023717 L267.9168,76.770282 L269.978536,76.7682764 C269.978536,76.7682764 270.579041,76.8324558 271.466789,76.7672735 L287.519304,76.7522315 L289.58104,76.7512287 C289.58104,76.7512287 290.182546,76.8154082 291.070294,76.7482203 L305.862748,76.7371894 L307.927486,76.7351838 C307.927486,76.7351838 313.11085,77.3298469 315.698028,73.3035863 L340.02451,24.4549668 C340.02451,24.4549668 342.223361,21.0775208 340.018505,18.3498922" id="Fill-96" fill="#FF7116" mask="url(#mask-2)"></path>
            <path d="M285.669858,257 L255.811411,257 L252.769487,257 L240,257 L240,282.984671 L240,286.97924 L240,348.606451 C240.328884,348.22497 240.542808,348.04821 240.798718,347.94535 C241.361519,347.714663 242.011289,347.81253 242.437139,348.247938 L247.265432,353.201204 L252.302652,348.299868 C252.898441,347.722653 253.847106,347.734636 254.422902,348.326831 C255.000698,348.920025 254.989702,349.867736 254.395912,350.444951 L248.470006,356.213109 C248.310063,356.428816 248.097138,356.604577 247.841229,356.708435 C247.644298,356.788327 247.437371,356.829271 247.232444,356.829271 C246.851578,356.829271 246.480709,356.688463 246.203807,356.404848 L241.374514,351.452581 L240,352.789763 L240.102464,616 L298,616 L297.897536,354.263759 L295.895244,356.213109 C295.734301,356.428816 295.521376,356.604577 295.266466,356.708435 C294.699666,356.938123 294.053895,356.841255 293.628045,356.404848 L288.908713,351.565428 L284.209374,356.139209 C284.05143,356.355915 283.836506,356.529678 283.584595,356.633537 C283.018795,356.863225 282.370024,356.764359 281.944175,356.328951 L277.26283,351.527479 L272.524504,356.139209 C272.36556,356.355915 272.151636,356.529678 271.899725,356.633537 C271.332925,356.863225 270.685154,356.764359 270.259305,356.328951 L264.493343,350.415991 C263.915547,349.822797 263.927543,348.875086 264.521333,348.29787 C265.113124,347.719657 266.061789,347.73164 266.641584,348.324834 L271.322929,353.126306 L276.062254,348.514576 C276.220198,348.29787 276.435122,348.124107 276.687033,348.021247 C277.252833,347.791559 277.901604,347.890424 278.326454,348.324834 L283.008799,353.126306 L287.337269,348.913034 C287.403245,348.659379 287.538198,348.419705 287.739127,348.222972 C288.330918,347.645757 289.279582,347.655744 289.857378,348.243944 C290.02032,348.409718 290.031317,348.422701 290.045312,348.436682 L294.68967,353.201204 L297.897536,350.080447 L297.897536,286.97924 L297.897536,282.984671 L297.897536,257 L288.668798,257 L285.669858,257 Z" id="Fill-97" fill="#FF7116" mask="url(#mask-2)"></path>
            <polygon id="Fill-98" fill="#FF7116" mask="url(#mask-2)" points="72.2440692 293 63 293 63 612 121 612 121 293 108.206913 293"></polygon>
            <path d="M220.011672,228.490283 L220.011672,272.509717 C220.011672,273.896914 218.877104,275.025312 217.484543,275.025312 L143.515457,275.025312 C142.120904,275.025312 140.988328,273.896914 140.988328,272.509717 L140.988328,228.490283 C140.988328,227.103086 142.120904,225.974688 143.515457,225.974688 L217.484543,225.974688 C218.877104,225.974688 220.011672,227.103086 220.011672,228.490283 Z M143.515457,223 C140.474336,223 138,225.463042 138,228.490283 L138,272.509717 C138,275.535967 140.474336,278 143.515457,278 L217.484543,278 C220.525664,278 223,275.535967 223,272.509717 L223,228.490283 C223,225.463042 220.525664,223 217.484543,223 L143.515457,223 Z" id="Fill-99" fill="#414042" mask="url(#mask-2)"></path>
            <path d="M349.042725,18.840423 C348.999702,18.9043206 348.962682,18.9712134 348.927663,19.040103 L319.739965,77.4205308 C317.338673,81.0177652 312.552099,80.5644917 312.358995,80.5425269 C312.282954,80.5335413 312.176897,80.5445237 312.127871,80.5295477 L41.8695186,80.7681652 C41.7994809,80.7681652 41.7194379,80.7731572 41.6494002,80.7811444 C41.4472915,80.800114 36.6617177,81.2643699 34.256424,77.673126 L4.96266906,19.3426181 C4.93365345,19.2817157 4.89263139,19.2118277 4.85561148,19.1539206 C4.80458404,19.0730502 3.98414278,17.7591561 3.99714978,16.2735372 C3.99614924,16.2475788 4.00015139,16.2236172 3.99815031,16.1986572 C4.00315301,15.9830029 4.03216861,15.7643534 4.0791939,15.5447054 C4.12822027,15.3080847 4.20526171,15.0874383 4.30131336,14.8757776 C4.31732197,14.841832 4.3363322,14.806888 4.35334135,14.7729424 C4.45539623,14.5682704 4.57446027,14.3705873 4.72454099,14.1858833 C6.4914913,12.0033814 9.57715085,12.0712726 11.4211426,12.1112086 C11.6562691,12.117199 11.9044025,12.132175 12.0494805,12.1211926 L341.831847,11.8306583 C342.011943,11.8306583 342.221056,11.8266647 342.453181,11.8206743 C342.914429,11.8096919 343.453719,11.7977111 344.030029,11.8186775 C345.759959,11.8805783 347.829072,12.2449942 349.157787,13.880373 C349.168793,13.8943506 349.176797,13.910325 349.187803,13.9243026 C349.286856,14.050101 349.374903,14.1788945 349.449944,14.3096849 C349.485963,14.3715857 349.514979,14.4374801 349.546996,14.5013776 C349.590019,14.5892368 349.632042,14.6780944 349.66606,14.766952 C349.691073,14.8348432 349.715086,14.9057296 349.735097,14.9756175 C349.770116,15.0854415 349.79713,15.1972623 349.818142,15.3080847 C349.826146,15.3530126 349.838153,15.3959438 349.844156,15.4408718 C349.874172,15.6345614 349.888179,15.8272525 349.887179,16.0179469 C349.885178,17.4825993 349.087749,18.7695366 349.042725,18.840423 M6.78665005,7.38877773 C8.89478386,4.42153362 12.0624875,4.27976086 17.9466522,4.27476886 L336.033728,3.99421853 L336.305875,3.99421853 C342.015946,3.99421853 345.118614,4.17093528 347.199734,7.0882594 C347.506899,7.52056649 347.782047,7.98681918 348.028179,8.47204147 C347.980153,8.45606707 347.932127,8.44608308 347.884102,8.43010868 C347.724016,8.37819189 347.562929,8.3332639 347.402843,8.28933431 C347.307792,8.26237752 347.210739,8.23542073 347.114688,8.21145913 C346.948598,8.17052474 346.78351,8.13757755 346.619421,8.10463036 C346.533375,8.08665916 346.447329,8.06669117 346.362283,8.05171517 C346.129158,8.00978238 345.899034,7.97483839 345.672912,7.94588479 C345.552848,7.9299104 345.435785,7.9199264 345.317721,7.9079456 C345.204661,7.89596481 345.089599,7.88298561 344.978539,7.87499841 C344.848469,7.86401601 344.722401,7.85602882 344.595333,7.84804162 C344.504284,7.84304962 344.412234,7.83705922 344.322186,7.83406402 C344.192116,7.82807362 344.064047,7.82408002 343.93898,7.82008642 C343.861938,7.81808962 343.785897,7.81709122 343.711858,7.81609282 C343.584789,7.81409603 343.457721,7.81209923 343.337656,7.81309763 C343.277624,7.81309763 343.221594,7.81409603 343.164563,7.81409603 C342.871406,7.81609282 342.598259,7.82208322 342.355128,7.82807362 C342.156021,7.83306562 341.977925,7.83705922 341.825843,7.83705922 L12.0464789,8.12759355 C11.8553761,8.14456635 11.7092976,8.12359995 11.5081894,8.11860795 C11.1890178,8.11161916 10.8178181,8.10463036 10.4136007,8.10662716 L10.3725787,8.10662716 C10.1904807,8.10762556 10.0033801,8.11161916 9.80727462,8.11860795 C9.77025471,8.11960635 9.73423534,8.12060475 9.69821597,8.12260155 C9.51811911,8.12859195 9.33602117,8.13857595 9.14792,8.15155515 C9.09989417,8.15554874 9.05186834,8.15854394 9.00484305,8.16253754 C8.81474081,8.17651514 8.62163695,8.19548474 8.42553148,8.21744953 C8.38050727,8.22343993 8.33748413,8.22743353 8.29245991,8.23242553 C7.80719893,8.29232951 7.30592933,8.37819189 6.79665543,8.50099506 C6.75863498,8.50998066 6.72161507,8.52196146 6.68459516,8.53194546 C6.47448215,8.58486064 6.26436915,8.64276783 6.05325561,8.70966061 C6.03024323,8.71565101 6.00623032,8.72064301 5.98321794,8.72863021 C6.22134601,8.25838392 6.48748915,7.80610883 6.78665005,7.38877773 M74.2779487,281.616246 C66.3066615,275.430161 66.4277267,268.460332 66.437732,268.111891 L66.437732,259.661435 C66.437732,259.491707 66.4027132,259.330965 66.3506852,259.179208 C66.4027132,259.026453 66.437732,258.86571 66.437732,258.695982 L66.437732,217.862431 L66.4807552,217.862431 L66.4807552,214.869228 L66.437732,214.869228 L66.437732,206.040379 C66.437732,204.941141 66.7719118,203.921775 67.3402174,203.069141 C68.3077378,201.620463 69.9556241,200.661001 71.8296319,200.661001 C74.8012302,200.661001 77.2185302,203.074133 77.2185302,206.040379 L77.2185302,210.683936 L77.2185302,214.859244 L77.1755071,214.859244 L77.1755071,217.851448 L77.2185302,217.851448 L77.2185302,228.929692 C77.2185302,229.756367 77.8908919,230.427292 78.7193374,230.427292 C79.547783,230.427292 80.2201446,229.756367 80.2201446,228.929692 L80.2201446,217.848453 L80.2631677,217.848453 L80.2631677,214.856249 L80.2201446,214.856249 L80.2201446,210.680941 L80.2201446,206.040379 L80.2201446,195.740887 L80.2201446,192.60092 C80.2201446,192.499083 80.2461586,192.404235 80.2511613,192.303397 C80.4092463,189.477925 82.7415006,187.221542 85.6120445,187.221542 C88.4785862,187.221542 90.8068384,189.471935 90.9709267,192.292414 C90.9769299,192.397246 91.0019433,192.496088 91.0019433,192.60092 L91.0019433,195.727908 L91.0019433,210.670957 L91.0019433,214.846265 L90.9599207,214.847263 L90.9599207,217.836472 L91.0019433,217.836472 L91.0019433,230.050895 C91.0019433,230.87757 91.674305,231.548494 92.5027505,231.548494 C93.3311961,231.548494 94.0035577,230.87757 94.0035577,230.050895 L94.0035577,217.833477 L94.0465808,217.833477 L94.0465808,214.844268 L94.0035577,214.844268 L94.0035577,210.666963 L94.0035577,195.724913 L94.0035577,192.60092 L94.0035577,192.290417 L94.0035577,185.951577 C94.0035577,182.985332 96.4228589,180.572199 99.3944571,180.572199 C102.367056,180.572199 104.784356,182.985332 104.784356,185.951577 L104.784356,192.279435 L104.784356,195.71393 L104.784356,197.312368 L104.784356,210.654983 L104.784356,214.834284 L104.741333,214.834284 L104.741333,217.823493 L104.784356,217.823493 L104.784356,230.050895 C104.784356,230.87757 105.456718,231.548494 106.285163,231.548494 C107.113609,231.548494 107.78597,230.87757 107.78597,230.050895 L107.78597,217.819499 L107.828993,217.819499 L107.828993,214.83029 L107.78597,214.83029 L107.78597,210.651987 L107.78597,197.312368 C107.78597,196.750269 107.89703,196.21912 108.058117,195.709937 C108.562388,194.111499 109.781043,192.840536 111.352889,192.272446 C111.925196,192.064779 112.533524,191.93299 113.17787,191.93299 C113.815213,191.93299 114.419538,192.063781 114.987844,192.268453 C117.067962,193.014257 118.566768,194.983102 118.566768,197.312368 L118.566768,214.81831 L118.524746,214.81831 L118.524746,217.808517 L118.566768,217.808517 L118.566768,238.086016 L118.566768,249.967972 L118.566768,257.273263 C118.566768,258.100936 119.23913,258.770862 120.067576,258.770862 C120.897022,258.770862 121.568383,258.100936 121.568383,257.273263 L121.568383,249.967972 L121.568383,238.086016 C121.568383,235.759745 123.466404,233.86578 125.799659,233.86578 L130.028933,233.86578 L130.028933,255.882492 C130.028933,255.909449 130.033936,255.934409 130.035937,255.961366 C130.036937,255.990319 130.032935,256.018274 130.035937,256.047228 C130.043941,256.103138 130.452161,261.81698 123.23728,269.140242 C118.331642,274.121259 112.520517,279.364854 108.874556,282.578703 L108.809521,282.578703 C106.699386,284.436725 105.321645,285.609845 105.284625,285.641794 C105.003474,285.88141 104.826379,286.213877 104.768347,286.572302 L104.81137,286.572302 C104.798363,286.652174 104.784356,286.732046 104.784356,286.814913 L104.784356,291.5024 L74.8562597,291.5024 L74.8562597,286.572302 L74.8992829,286.572302 L74.8992829,282.797353 C74.8992829,282.723471 74.8842748,282.650588 74.8742694,282.578703 L74.8322468,282.578703 C74.7752162,282.20031 74.5831128,281.854863 74.2779487,281.616246 M62.6206791,214.408966 C62.3225188,214.110444 62.1564294,213.714079 62.1564294,213.291756 L62.0563756,115.970743 C62.0543745,115.100138 62.7657571,114.389277 63.6372258,114.386282 L297.763145,114.144669 C297.788159,114.145668 297.814173,114.146666 297.839186,114.146666 L297.843188,114.146666 C298.712656,114.146666 299.422037,114.856528 299.42604,115.726135 L299.528094,213.047148 C299.528094,213.468473 299.364006,213.865836 299.064845,214.165356 C298.765684,214.463878 298.369471,214.627615 297.945243,214.627615 L297.943242,214.627615 L297.740133,214.627615 L297.740133,189.713548 C297.740133,186.961958 296.397411,184.522867 294.337303,182.996314 C292.940551,181.960973 291.217625,181.339969 289.34862,181.339969 C287.296516,181.339969 285.416505,182.080781 283.95672,183.304819 L283.95672,183.172032 C283.95672,181.606541 283.517483,180.145883 282.766079,178.892891 C282.003669,177.619931 280.920087,176.563624 279.618386,175.844776 C278.41674,175.178844 277.034997,174.797455 275.565207,174.797455 C274.470618,174.797455 273.428057,175.014108 272.468541,175.396495 C271.437987,175.805839 270.509487,176.410869 269.727067,177.168655 C269.571983,176.713384 269.386884,176.27309 269.158761,175.856757 C267.734995,173.24694 264.962504,171.472784 261.782794,171.472784 C259.765709,171.472784 257.914714,172.187638 256.465934,173.373737 C256.43992,173.394703 256.416908,173.416668 256.390894,173.437635 L256.390894,160.913708 C256.390894,160.533318 256.356876,160.160915 256.306849,159.794502 C255.887623,156.667514 253.735466,154.089646 250.845912,153.045319 C250.260597,152.833659 249.649268,152.6829 249.011925,152.605025 C248.679747,152.565089 248.342565,152.538132 248.000381,152.538132 C243.748094,152.538132 240.232203,155.713044 239.688911,159.810476 C239.640885,160.172895 239.606867,160.539308 239.606867,160.913708 L239.606867,178.93682 L239.606867,192.139659 L239.606867,195.574154 L239.606867,195.847716 C239.475797,195.751869 239.339723,195.661015 239.201649,195.575153 C238.090051,194.879268 236.782348,194.471921 235.377593,194.471921 L229.648511,194.471921 C228.954138,194.471921 228.373826,194.946161 228.203734,195.584138 C228.170716,195.70794 228.147704,195.834737 228.147704,195.96952 L228.147704,210.527187 L228.147704,214.701497 L121.568383,214.815314 L121.568383,210.639008 L121.568383,197.312368 C121.568383,196.759255 121.512353,196.21912 121.409297,195.695959 C121.158162,194.422999 120.613869,193.257867 119.856462,192.262462 C118.321637,190.247691 115.902335,188.937791 113.17787,188.937791 C111.686068,188.937791 110.286315,189.333157 109.070661,190.016063 C108.614416,190.272651 108.184184,190.569176 107.78597,190.902642 L107.78597,185.951577 C107.78597,184.274266 107.284701,182.714765 106.431242,181.402868 C105.835921,180.489332 105.068509,179.6986 104.174028,179.076596 C102.816297,178.134107 101.170412,177.577 99.3944571,177.577 C97.6124987,177.577 95.9616108,178.139099 94.6008789,179.08658 C92.4287107,180.602151 91.0019433,183.11113 91.0019433,185.951577 L91.0019433,186.191193 C89.5431588,184.968153 87.6631476,184.226342 85.6120445,184.226342 C81.083609,184.226342 77.3906228,187.826572 77.2345389,192.30739 C77.2305367,192.405233 77.2185302,192.50108 77.2185302,192.60092 L77.2185302,195.743882 L77.2185302,199.630652 C75.7597457,198.406614 73.8797345,197.665802 71.8296319,197.665802 C70.1757424,197.665802 68.6369148,198.152022 67.3362153,198.978697 C64.9949561,200.466313 63.4361177,203.072136 63.4361177,206.040379 L63.4361177,214.841273 C63.1289525,214.782367 62.8478013,214.633606 62.6206791,214.408966 M350.459487,4.77297034 C347.049653,-0.00836613077 341.976925,-0.007367731 336.029726,0.000619467117 L17.94265,0.281169801 C12.0314709,0.2861618 6.92272323,0.291153799 3.52089363,5.07848067 C1.33271677,8.15754554 0.492264753,12.2509846 0.173093094,14.6012176 C0.0480258296,15.1503375 0.0120064574,15.6854798 0.0100053812,16.2076428 C0.00800430493,16.24059 0,16.2735372 0,16.3064844 C0,16.3534092 0.00800430493,16.3993356 0.0120064574,16.4462604 C0.0720387444,18.7845126 1.12360431,20.7154178 1.42576682,21.2136193 L30.7305277,79.5660919 C30.7625449,79.6309879 30.7995649,79.6938871 30.8385858,79.7547895 C33.7581561,84.2625644 38.770852,84.7997035 40.9920466,84.7997035 C41.4492926,84.7997035 41.7894755,84.7777387 41.9695724,84.7617643 L75.1314077,84.7328107 L75.1344093,87.3935461 L50.4211179,87.3935461 C41.6063771,87.3935461 34.4345198,94.5500756 34.4345198,103.345978 L34.4345198,270.620869 C34.4345198,279.415773 41.6063771,286.572302 50.4211179,286.572302 L71.8546454,286.572302 L71.8546454,293 L107.78597,293 L107.78597,287.503809 C108.055115,287.273179 108.420311,286.957685 108.86355,286.572302 L240.609406,286.572302 L240.609406,282.578703 L113.386983,282.578703 C116.924885,279.405789 121.436312,275.244459 125.379432,271.240876 C133.269676,263.228717 133.095582,256.718153 133.030547,255.823586 L133.030547,232.368181 C133.030547,231.541506 132.358186,230.870581 131.52974,230.870581 L125.799659,230.870581 C124.218808,230.870581 122.761024,231.384757 121.568383,232.246376 L121.568383,217.805522 L228.147704,217.695698 L228.147704,219.423928 C228.081669,220.318494 227.906574,226.830057 235.795817,234.842215 C242.637497,241.787084 251.201103,249.222167 253.38928,251.105149 L253.38928,256.60134 L256.390894,256.60134 L256.390894,250.416253 C256.390894,249.977956 256.199791,249.560625 255.86361,249.277079 C255.763557,249.191217 245.712151,240.634931 237.93797,232.741582 C230.752105,225.446275 231.131309,219.758392 231.141314,219.63459 C231.143315,219.60963 231.139313,219.58467 231.141314,219.55971 C231.142315,219.533752 231.149318,219.50979 231.149318,219.483832 L231.149318,217.692703 L231.192342,217.692703 L231.192342,214.698502 L231.149318,214.698502 L231.149318,210.524192 L231.149318,197.46712 L235.377593,197.46712 C237.709847,197.46712 239.606867,199.361084 239.606867,201.687356 L239.606867,210.516205 L239.606867,213.569312 L239.606867,214.689516 L239.563844,214.689516 L239.563844,217.683717 L239.606867,217.683717 L239.606867,220.874603 C239.606867,221.702276 240.279229,222.372202 241.107674,222.372202 C241.93612,222.372202 242.608481,221.702276 242.608481,220.874603 L242.608481,217.680722 L242.651505,217.680722 L242.651505,214.685522 L242.608481,214.685522 L242.608481,213.569312 L242.608481,210.51321 L242.608481,201.687356 L242.608481,195.571159 L242.608481,192.136664 L242.608481,178.933825 L242.608481,175.880719 L242.608481,162.682872 L242.608481,160.913708 C242.608481,160.534316 242.650504,160.164908 242.725544,159.807481 C243.238821,157.370387 245.406987,155.533332 248.000381,155.533332 C248.347568,155.533332 248.684749,155.572269 249.013927,155.636167 C249.679284,155.762964 250.296616,156.017555 250.849914,156.365997 C252.066568,157.128774 252.964051,158.350816 253.270216,159.797497 C253.346257,160.157919 253.38928,160.530322 253.38928,160.913708 L253.38928,162.67189 L253.38928,175.869736 L253.38928,178.921844 L253.38928,179.847361 L253.38928,189.865304 L253.38928,192.124683 L253.38928,193.663217 C253.38928,194.489892 254.061641,195.160817 254.890087,195.160817 C255.719533,195.160817 256.390894,194.489892 256.390894,193.663217 L256.390894,192.122686 L256.390894,189.865304 L256.390894,179.847361 C256.390894,179.528872 256.431916,179.221364 256.485945,178.918849 C256.698059,177.711784 257.314391,176.65348 258.189862,175.865743 C259.145375,175.007119 260.397049,174.467983 261.782794,174.467983 C263.163537,174.467983 264.412208,175.004124 265.366722,175.859752 C266.244193,176.645493 266.863527,177.702798 267.077642,178.907867 C267.132671,179.214376 267.172693,179.524878 267.172693,179.847361 L267.172693,183.172032 L267.172693,191.014462 L267.172693,192.110705 L267.172693,193.602315 C267.172693,194.42899 267.845054,195.099914 268.6735,195.099914 C269.501946,195.099914 270.174307,194.42899 270.174307,193.602315 L270.174307,192.10771 L270.174307,191.014462 L270.174307,183.172032 C270.174307,181.425831 271.025765,179.886299 272.322462,178.902875 C273.227949,178.215976 274.343549,177.792654 275.565207,177.792654 C276.782861,177.792654 277.89646,178.212981 278.799946,178.895886 C280.101646,179.87931 280.955105,181.421838 280.955105,183.172032 L280.955105,189.713548 L280.955105,192.094731 L280.955105,193.602315 C280.955105,194.42899 281.627467,195.099914 282.455913,195.099914 C283.284358,195.099914 283.95672,194.42899 283.95672,193.602315 L283.95672,192.091736 L283.95672,189.713548 C283.95672,186.7483 286.376021,184.335168 289.34862,184.335168 C291.609836,184.335168 293.541875,185.734924 294.341305,187.709759 C294.59244,188.329765 294.738518,189.004684 294.738518,189.713548 L294.738518,214.63061 L294.696496,214.63061 L294.696496,217.62581 L294.738518,217.62581 L294.738518,223.262775 L294.738518,225.511171 C294.738518,225.51217 294.739519,225.513168 294.739519,225.514166 L294.74052,231.768142 C294.747523,232.060674 294.868588,239.031501 286.900303,245.216587 C286.534106,245.500133 286.319991,245.936433 286.319991,246.398693 L286.319991,256.60134 L289.321605,256.60134 L289.321605,247.119537 C297.982263,240.047872 297.75314,231.998773 297.740133,231.71323 L297.740133,225.511171 L297.740133,223.262775 L297.740133,217.623813 L297.947244,217.623813 C300.473603,217.623813 302.529709,215.569106 302.529709,213.043155 L302.427654,115.718147 C302.417649,113.226142 300.409569,111.197393 297.929235,111.152465 C297.898218,111.150468 297.8652,111.146475 297.835184,111.14947 L63.6322232,111.391083 C61.1068649,111.398072 59.0527602,113.453777 59.0547613,115.973738 L59.1548151,213.296748 C59.1568162,214.516793 59.6330723,215.664953 60.5005388,216.528568 C61.2939656,217.318303 62.3295225,217.762591 63.4361177,217.835474 L63.4361177,258.695982 C63.4361177,258.86571 63.470136,259.026453 63.522164,259.179208 C63.470136,259.330965 63.4361177,259.491707 63.4361177,259.661435 L63.4361177,268.04999 C63.4231107,268.38046 63.2350095,275.750647 70.7840696,282.578703 L50.4211179,282.578703 C43.8135641,282.578703 38.4366723,277.214301 38.4366723,270.620869 L38.4366723,103.345978 C38.4366723,96.7515471 43.8135641,91.3871451 50.4211179,91.3871451 L75.1384115,91.3871451 L75.1454153,97.5902029 L286.321992,97.3675597 L286.316989,91.3871451 L311.204374,91.3871451 C317.812929,91.3871451 323.18882,96.7515471 323.18882,103.345978 L323.18882,270.620869 C323.18882,277.214301 317.812929,282.578703 311.204374,282.578703 L298.558573,282.578703 L298.558573,286.572302 L311.204374,286.572302 C320.019115,286.572302 327.190972,279.415773 327.190972,270.620869 L327.190972,103.345978 C327.190972,94.5500756 320.019115,87.3935461 311.204374,87.3935461 L286.312987,87.3935461 L286.309985,84.5461099 L312.036822,84.5231467 C313.089388,84.6159979 319.647915,84.9404778 323.161805,79.4972023 C323.200826,79.4353015 323.235845,79.3724024 323.268863,79.306508 L352.468567,20.9041153 C352.743715,20.4478466 353.66321,18.7934982 353.861316,16.7208203 C353.964372,16.4562444 354.014399,16.1717005 353.996389,15.8821645 C353.981381,15.608603 353.572161,9.13198371 350.459487,4.77297034" id="Fill-100" fill="#414042" mask="url(#mask-2)"></path>
            <path d="M211.388367,344.577124 C211.662214,344.859705 212.031658,345 212.413053,345 C212.615202,345 212.823325,344.959205 213.020495,344.879605 C213.27343,344.776124 213.486533,344.601004 213.644866,344.386083 L219.549008,338.637953 C220.138525,338.062842 220.152467,337.118584 219.57689,336.527553 C219.001314,335.935526 218.055297,335.925576 217.464783,336.500688 L212.445914,341.385155 L207.634174,336.449942 C207.212947,336.016121 206.56866,335.920601 206.003041,336.147462 C205.750106,336.250942 205.536008,336.426062 205.37867,336.640983 L200.504194,341.385155 L195.877673,336.637998 C195.863732,336.624068 195.851782,336.611133 195.840828,336.598198 L195.690461,336.445962 C195.112893,335.859906 194.169864,335.849956 193.580346,336.425067 C193.380188,336.621083 193.245754,336.859883 193.180031,337.112614 L188.868186,341.309535 L184.203824,336.525563 C183.77961,336.091741 183.134327,335.993236 182.572692,336.223082 C182.319757,336.325567 182.105658,336.499693 181.948321,336.716603 L177.227199,341.309535 L172.563833,336.525563 C171.988257,335.935526 171.044231,335.923586 170.451726,336.498698 C169.860217,337.073809 169.848267,338.018067 170.423843,338.609098 L176.16766,344.501504 C176.593865,344.93632 177.239148,345.034825 177.799788,344.803984 C178.051727,344.701499 178.265826,344.527374 178.423163,344.310463 L183.144285,339.717531 L187.807651,344.501504 C188.233856,344.93632 188.87914,345.034825 189.439779,344.803984 C189.692714,344.701499 189.906813,344.527374 190.06415,344.310463 L194.74544,339.755341 L199.446646,344.577124 C199.87086,345.01194 200.516143,345.108455 201.077779,344.879605 C201.332705,344.776124 201.544812,344.601004 201.704141,344.386083 L206.576626,339.641911 L211.388367,344.577124 Z" id="Fill-101" fill="#414042" mask="url(#mask-2)"></path>
            <path d="M252.463563,348.501683 L247.445687,353.385155 L242.635936,348.449942 C242.211722,348.016121 241.564446,347.918611 241.003807,348.149452 C240.74888,348.250942 240.534781,348.427057 240.377444,348.643968 L240.208156,348.808143 L235.505952,353.385155 L230.876442,348.637998 C230.865488,348.624068 230.853538,348.611133 230.841588,348.599193 L230.692217,348.445962 C230.114649,347.859906 229.170623,347.849956 228.580109,348.425067 C228.378956,348.621083 228.245517,348.859883 228.178798,349.112614 L223.866951,353.31053 L219.203583,348.526558 C218.78136,348.093731 218.135081,347.995226 217.571454,348.224077 C217.318519,348.326562 217.106412,348.499693 216.947082,348.715608 L212.226954,353.31053 L207.56259,348.526558 C206.987013,347.936521 206.041992,347.923586 205.450482,348.499693 C204.860964,349.074804 204.848018,350.019062 205.423595,350.610093 L211.16841,356.501504 C211.592624,356.93632 212.237908,357.03383 212.800539,356.804979 C213.053474,356.701499 213.265581,356.528369 213.42491,356.313448 L218.145039,351.717531 L222.809403,356.501504 C223.232621,356.93632 223.8789,357.03383 224.440536,356.804979 C224.693471,356.701499 224.905578,356.528369 225.064907,356.313448 L229.747196,351.756336 L234.447408,356.577124 C234.869631,357.01194 235.514914,357.108455 236.079537,356.879605 C236.332472,356.776124 236.546571,356.601999 236.703909,356.386083 L240.208156,352.975214 L241.577392,351.642906 L246.387144,356.577124 C246.663978,356.859705 247.033423,357 247.412826,357 C247.616966,357 247.823098,356.959205 248.019272,356.879605 C248.274199,356.776124 248.486306,356.601999 248.645636,356.386083 L254.548784,350.638948 C255.140294,350.063837 255.151248,349.119579 254.575671,348.528548 C254.002086,347.939506 253.057064,347.926571 252.463563,348.501683" id="Fill-102" fill="#414042" mask="url(#mask-2)"></path>
            <path d="M312.464297,348.501683 L307.446421,353.385155 L302.634678,348.449942 C302.212456,348.016121 301.565181,347.918611 301.002549,348.149452 C300.749614,348.250942 300.535515,348.427057 300.376186,348.643968 L298.700242,350.275772 L295.504695,353.385155 L290.877176,348.637998 C290.86423,348.624068 290.852281,348.611133 290.840331,348.599193 L290.69096,348.445962 C290.115383,347.859906 289.169366,347.849956 288.580843,348.425067 C288.37969,348.621083 288.246252,348.859883 288.179533,349.112614 L283.867685,353.31053 L279.204317,348.526558 C278.780103,348.093731 278.133824,347.995226 277.570197,348.224077 C277.319253,348.326562 277.105154,348.499693 276.947817,348.715608 L272.227688,353.31053 L267.563324,348.526558 C266.985756,347.936521 266.040734,347.923586 265.451216,348.499693 C264.859706,349.074804 264.848752,350.019062 265.424329,350.610093 L271.167153,356.501504 C271.591367,356.93632 272.237646,357.03383 272.801273,356.804979 C273.052217,356.701499 273.266315,356.528369 273.423653,356.313448 L278.143782,351.717531 L282.808145,356.501504 C283.23236,356.93632 283.877643,357.03383 284.44127,356.804979 C284.692214,356.701499 284.906312,356.528369 285.06365,356.313448 L289.745938,351.756336 L294.446151,356.577124 C294.870365,357.01194 295.514653,357.108455 296.07828,356.879605 C296.333207,356.776124 296.545314,356.601999 296.704643,356.386083 L298.700242,354.443838 L301.576135,351.642906 L306.387878,356.577124 C306.662721,356.859705 307.032165,357 307.41356,357 C307.615709,357 307.823833,356.959205 308.020007,356.879605 C308.272942,356.776124 308.487041,356.601999 308.644378,356.386083 L314.549518,350.638948 C315.139036,350.063837 315.151982,349.119579 314.576405,348.528548 C314.000828,347.939506 313.055807,347.926571 312.464297,348.501683" id="Fill-103" fill="#414042" mask="url(#mask-2)"></path>
        </g>
    </g>
</svg>