<?xml version="1.0" encoding="UTF-8"?>
<svg width="1276px" height="163px" viewBox="0 0 1276 163" version="1.1" xmlns="http://www.w3.org/2000/svg" xmlns:xlink="http://www.w3.org/1999/xlink">
    <!-- Generator: Sketch 48.2 (47327) - http://www.bohemiancoding.com/sketch -->
    <title>Group 19</title>
    <desc>Created with Sketch.</desc>
    <defs></defs>
    <g id="Desktop-HD" stroke="none" stroke-width="1" fill="none" fill-rule="evenodd" transform="translate(-1.000000, -3967.000000)">
        <g id="Group-19" transform="translate(1.000000, 3966.000000)" fill="#414042">
            <g id="Page-1">
                <g id="Group-3" transform="translate(0.000000, 0.947700)">
                    <path d="M56.3212,11.1469 C56.5112,11.1469 56.7032,11.1109 56.8852,11.0369 C57.2222,10.8999 57.4892,10.6499 57.6512,10.3409 L65.4632,2.7309 C66.0552,2.1539 66.0682,1.2039 65.4902,0.6099 C64.9122,0.0159 63.9632,0.0039 63.3692,0.5829 L56.2972,7.4719 L49.5102,0.5049 C49.0852,0.0689 48.4362,-0.0671 47.8712,0.1629 C47.5342,0.2989 47.2672,0.5489 47.1062,0.8579 L40.3172,7.4719 L33.7792,0.7609 C33.7612,0.7419 33.7432,0.7219 33.7252,0.7039 L33.5242,0.4999 C32.9442,-0.0891 31.9962,-0.0981 31.4052,0.4809 C31.1712,0.7099 31.0282,0.9979 30.9772,1.2979 L24.7422,7.3719 L18.1522,0.6069 C17.7272,0.1699 17.0792,0.0369 16.5122,0.2649 C16.1782,0.4009 15.9132,0.6489 15.7512,0.9549 L9.1642,7.3719 L2.5742,0.6069 C1.9952,0.0129 1.0462,0.0019 0.4532,0.5799 C-0.1398,1.1579 -0.1528,2.1069 0.4252,2.7009 L8.1132,10.5919 C8.5382,11.0289 9.1872,11.1649 9.7532,10.9349 C10.0872,10.7979 10.3522,10.5499 10.5142,10.2449 L17.1012,3.8279 L23.6912,10.5919 C24.1162,11.0289 24.7652,11.1649 25.3312,10.9349 C25.6652,10.7979 25.9302,10.5499 26.0922,10.2449 L32.6282,3.8779 L39.2662,10.6939 C39.6922,11.1299 40.3412,11.2649 40.9062,11.0369 C41.2432,10.8999 41.5092,10.6499 41.6712,10.3409 L48.4602,3.7269 L55.2472,10.6939 C55.5342,10.9899 55.9252,11.1469 56.3212,11.1469" id="Fill-1"></path>
                </g>
                <path d="M157.3368,1.5575 C156.7588,0.9645 155.8098,0.9525 155.2158,1.5305 L148.1438,8.4195 L141.3568,1.4535 C140.9308,1.0155 140.2828,0.8815 139.7158,1.1105 C139.3798,1.2465 139.1118,1.4965 138.9518,1.8055 L132.1628,8.4195 L125.6258,1.7085 C125.6078,1.6895 125.5888,1.6695 125.5708,1.6515 L125.3698,1.4475 C124.7878,0.8585 123.8428,0.8495 123.2508,1.4285 C123.0168,1.6585 122.8748,1.9455 122.8228,2.2455 L116.5888,8.3195 L109.9988,1.5545 C109.5728,1.1185 108.9248,0.9845 108.3578,1.2125 C108.0248,1.3485 107.7588,1.5965 107.5968,1.9025 L101.0108,8.3195 L94.4208,1.5545 C93.8418,0.9605 92.8928,0.9505 92.2998,1.5275 C91.7058,2.1055 91.6938,3.0545 92.2728,3.6485 L99.9598,11.5395 C100.3848,11.9765 101.0318,12.1125 101.5988,11.8825 C101.9328,11.7455 102.1998,11.4975 102.3598,11.1925 L108.9478,4.7755 L115.5378,11.5395 C115.9638,11.9775 116.6118,12.1135 117.1768,11.8825 C117.5108,11.7455 117.7778,11.4975 117.9388,11.1925 L124.4738,4.8265 L131.1118,11.6415 C131.5398,12.0785 132.1878,12.2135 132.7528,11.9845 C133.0888,11.8475 133.3568,11.5975 133.5168,11.2885 L140.3058,4.6745 L147.0928,11.6415 C147.3818,11.9375 147.7708,12.0945 148.1668,12.0945 C148.3578,12.0945 148.5498,12.0585 148.7328,11.9845 C149.0688,11.8475 149.3368,11.5975 149.4968,11.2885 L157.3098,3.6785 C157.9008,3.1015 157.9148,2.1515 157.3368,1.5575" id="Fill-4"></path>
                <path d="M112.7548,33.3827 L105.6828,40.2727 L98.8958,33.3057 C98.4708,32.8687 97.8208,32.7347 97.2568,32.9627 C96.9198,33.0997 96.6528,33.3497 96.4908,33.6577 L89.7018,40.2727 L83.1648,33.5627 C83.1478,33.5427 83.1288,33.5227 83.1098,33.5037 L82.9088,33.3007 C82.3288,32.7107 81.3818,32.7017 80.7908,33.2807 C80.5568,33.5107 80.4128,33.7987 80.3618,34.0987 L74.1278,40.1727 L67.5378,33.4077 C67.1118,32.9707 66.4638,32.8347 65.8998,33.0657 C65.5648,33.2007 65.2978,33.4487 65.1368,33.7557 L58.5498,40.1727 L51.9598,33.4077 C51.3818,32.8147 50.4328,32.8037 49.8388,33.3807 C49.2448,33.9587 49.2338,34.9077 49.8118,35.5017 L57.4978,43.3927 C57.9238,43.8297 58.5718,43.9657 59.1378,43.7357 C59.4718,43.5997 59.7378,43.3517 59.8998,43.0447 L66.4868,36.6287 L73.0758,43.3927 C73.5018,43.8297 74.1508,43.9657 74.7158,43.7357 C75.0498,43.5997 75.3168,43.3517 75.4778,43.0447 L82.0128,36.6797 L88.6518,43.4937 C89.0768,43.9307 89.7258,44.0667 90.2918,43.8377 C90.6278,43.7007 90.8958,43.4507 91.0558,43.1427 L97.8458,36.5277 L104.6338,43.4937 C104.9208,43.7897 105.3118,43.9477 105.7078,43.9477 C105.8978,43.9477 106.0888,43.9107 106.2728,43.8377 C106.6088,43.7007 106.8758,43.4507 107.0378,43.1427 L114.8488,35.5307 C115.4418,34.9527 115.4538,34.0037 114.8758,33.4097 C114.2958,32.8167 113.3468,32.8047 112.7548,33.3827" id="Fill-6"></path>
            </g>
            <g id="Page-1-Copy-2" transform="translate(1118.000000, 120.000000)">
                <g id="Group-3" transform="translate(0.000000, 0.947700)">
                    <path d="M56.3212,11.1469 C56.5112,11.1469 56.7032,11.1109 56.8852,11.0369 C57.2222,10.8999 57.4892,10.6499 57.6512,10.3409 L65.4632,2.7309 C66.0552,2.1539 66.0682,1.2039 65.4902,0.6099 C64.9122,0.0159 63.9632,0.0039 63.3692,0.5829 L56.2972,7.4719 L49.5102,0.5049 C49.0852,0.0689 48.4362,-0.0671 47.8712,0.1629 C47.5342,0.2989 47.2672,0.5489 47.1062,0.8579 L40.3172,7.4719 L33.7792,0.7609 C33.7612,0.7419 33.7432,0.7219 33.7252,0.7039 L33.5242,0.4999 C32.9442,-0.0891 31.9962,-0.0981 31.4052,0.4809 C31.1712,0.7099 31.0282,0.9979 30.9772,1.2979 L24.7422,7.3719 L18.1522,0.6069 C17.7272,0.1699 17.0792,0.0369 16.5122,0.2649 C16.1782,0.4009 15.9132,0.6489 15.7512,0.9549 L9.1642,7.3719 L2.5742,0.6069 C1.9952,0.0129 1.0462,0.0019 0.4532,0.5799 C-0.1398,1.1579 -0.1528,2.1069 0.4252,2.7009 L8.1132,10.5919 C8.5382,11.0289 9.1872,11.1649 9.7532,10.9349 C10.0872,10.7979 10.3522,10.5499 10.5142,10.2449 L17.1012,3.8279 L23.6912,10.5919 C24.1162,11.0289 24.7652,11.1649 25.3312,10.9349 C25.6652,10.7979 25.9302,10.5499 26.0922,10.2449 L32.6282,3.8779 L39.2662,10.6939 C39.6922,11.1299 40.3412,11.2649 40.9062,11.0369 C41.2432,10.8999 41.5092,10.6499 41.6712,10.3409 L48.4602,3.7269 L55.2472,10.6939 C55.5342,10.9899 55.9252,11.1469 56.3212,11.1469" id="Fill-1"></path>
                </g>
                <path d="M157.3368,1.5575 C156.7588,0.9645 155.8098,0.9525 155.2158,1.5305 L148.1438,8.4195 L141.3568,1.4535 C140.9308,1.0155 140.2828,0.8815 139.7158,1.1105 C139.3798,1.2465 139.1118,1.4965 138.9518,1.8055 L132.1628,8.4195 L125.6258,1.7085 C125.6078,1.6895 125.5888,1.6695 125.5708,1.6515 L125.3698,1.4475 C124.7878,0.8585 123.8428,0.8495 123.2508,1.4285 C123.0168,1.6585 122.8748,1.9455 122.8228,2.2455 L116.5888,8.3195 L109.9988,1.5545 C109.5728,1.1185 108.9248,0.9845 108.3578,1.2125 C108.0248,1.3485 107.7588,1.5965 107.5968,1.9025 L101.0108,8.3195 L94.4208,1.5545 C93.8418,0.9605 92.8928,0.9505 92.2998,1.5275 C91.7058,2.1055 91.6938,3.0545 92.2728,3.6485 L99.9598,11.5395 C100.3848,11.9765 101.0318,12.1125 101.5988,11.8825 C101.9328,11.7455 102.1998,11.4975 102.3598,11.1925 L108.9478,4.7755 L115.5378,11.5395 C115.9638,11.9775 116.6118,12.1135 117.1768,11.8825 C117.5108,11.7455 117.7778,11.4975 117.9388,11.1925 L124.4738,4.8265 L131.1118,11.6415 C131.5398,12.0785 132.1878,12.2135 132.7528,11.9845 C133.0888,11.8475 133.3568,11.5975 133.5168,11.2885 L140.3058,4.6745 L147.0928,11.6415 C147.3818,11.9375 147.7708,12.0945 148.1668,12.0945 C148.3578,12.0945 148.5498,12.0585 148.7328,11.9845 C149.0688,11.8475 149.3368,11.5975 149.4968,11.2885 L157.3098,3.6785 C157.9008,3.1015 157.9148,2.1515 157.3368,1.5575" id="Fill-4"></path>
                <path d="M112.7548,33.3827 L105.6828,40.2727 L98.8958,33.3057 C98.4708,32.8687 97.8208,32.7347 97.2568,32.9627 C96.9198,33.0997 96.6528,33.3497 96.4908,33.6577 L89.7018,40.2727 L83.1648,33.5627 C83.1478,33.5427 83.1288,33.5227 83.1098,33.5037 L82.9088,33.3007 C82.3288,32.7107 81.3818,32.7017 80.7908,33.2807 C80.5568,33.5107 80.4128,33.7987 80.3618,34.0987 L74.1278,40.1727 L67.5378,33.4077 C67.1118,32.9707 66.4638,32.8347 65.8998,33.0657 C65.5648,33.2007 65.2978,33.4487 65.1368,33.7557 L58.5498,40.1727 L51.9598,33.4077 C51.3818,32.8147 50.4328,32.8037 49.8388,33.3807 C49.2448,33.9587 49.2338,34.9077 49.8118,35.5017 L57.4978,43.3927 C57.9238,43.8297 58.5718,43.9657 59.1378,43.7357 C59.4718,43.5997 59.7378,43.3517 59.8998,43.0447 L66.4868,36.6287 L73.0758,43.3927 C73.5018,43.8297 74.1508,43.9657 74.7158,43.7357 C75.0498,43.5997 75.3168,43.3517 75.4778,43.0447 L82.0128,36.6797 L88.6518,43.4937 C89.0768,43.9307 89.7258,44.0667 90.2918,43.8377 C90.6278,43.7007 90.8958,43.4507 91.0558,43.1427 L97.8458,36.5277 L104.6338,43.4937 C104.9208,43.7897 105.3118,43.9477 105.7078,43.9477 C105.8978,43.9477 106.0888,43.9107 106.2728,43.8377 C106.6088,43.7007 106.8758,43.4507 107.0378,43.1427 L114.8488,35.5307 C115.4418,34.9527 115.4538,34.0037 114.8758,33.4097 C114.2958,32.8167 113.3468,32.8047 112.7548,33.3827" id="Fill-6"></path>
            </g>
        </g>
    </g>
</svg>